<?xml version="1.0" encoding="utf-8"?>
<!-- Generator: Adobe Illustrator 27.5.0, SVG Export Plug-In . SVG Version: 6.00 Build 0)  -->
<svg version="1.1" xmlns="http://www.w3.org/2000/svg" xmlns:xlink="http://www.w3.org/1999/xlink" x="0px" y="0px"
	 viewBox="0 0 750 500" style="enable-background:new 0 0 750 500;" xml:space="preserve">
<g id="BACKROUND">
	<linearGradient id="SVGID_1_" gradientUnits="userSpaceOnUse" x1="365.4414" y1="455.8277" x2="408.2139" y2="-465.2008">
		<stop  offset="0" style="stop-color:#EBF6FF"/>
		<stop  offset="1" style="stop-color:#90D1FF"/>
	</linearGradient>
	<rect style="fill:url(#SVGID_1_);" width="750" height="500"/>
</g>
<g id="OBJECTS">
	<g>
		
			<linearGradient id="SVGID_00000119832597198564748060000004644808598126983584_" gradientUnits="userSpaceOnUse" x1="375" y1="279.8317" x2="375" y2="475.1585">
			<stop  offset="0" style="stop-color:#FFFFFF"/>
			<stop  offset="1" style="stop-color:#FFFFFF;stop-opacity:0"/>
		</linearGradient>
		<path style="fill:url(#SVGID_00000119832597198564748060000004644808598126983584_);" d="M750,245.79V500H0V258.31
			c47.97-32.28,125.78-45.52,140.91,38.67c21.95-27.13,86.23,18.21,65.85,58.99c17.41-14.83,47.4-1.59,35.26,22.44
			c29.2-13.75,99.55-13.41,109.28,61.99c18.86-52.19,127.36-104.83,178.69-48.22c0-33.93,35.08-44.34,52.83-20.25
			c-0.08-83.54,75.87-124.24,120.94-85C699.82,265.36,722.76,245.19,750,245.79z"/>
		<g>
			
				<linearGradient id="SVGID_00000158718450358358775090000004811562459786267278_" gradientUnits="userSpaceOnUse" x1="173.777" y1="221.4657" x2="145.6186" y2="311.2874">
				<stop  offset="0" style="stop-color:#FFFFFF"/>
				<stop  offset="1" style="stop-color:#FFFFFF;stop-opacity:0"/>
			</linearGradient>
			<circle style="fill:url(#SVGID_00000158718450358358775090000004811562459786267278_);" cx="164.832" cy="250" r="8.559"/>
			
				<linearGradient id="SVGID_00000142135566905165926530000005990653281194841018_" gradientUnits="userSpaceOnUse" x1="560.9113" y1="298.4591" x2="532.7529" y2="388.2808">
				<stop  offset="0" style="stop-color:#FFFFFF"/>
				<stop  offset="1" style="stop-color:#FFFFFF;stop-opacity:0"/>
			</linearGradient>
			<circle style="fill:url(#SVGID_00000142135566905165926530000005990653281194841018_);" cx="551.966" cy="326.993" r="8.559"/>
			
				<linearGradient id="SVGID_00000129191255962059708770000009253482752254076063_" gradientUnits="userSpaceOnUse" x1="599.4551" y1="250.8368" x2="588.5686" y2="285.5633">
				<stop  offset="0" style="stop-color:#FFFFFF"/>
				<stop  offset="1" style="stop-color:#FFFFFF;stop-opacity:0"/>
			</linearGradient>
			<circle style="fill:url(#SVGID_00000129191255962059708770000009253482752254076063_);" cx="595.997" cy="261.869" r="3.309"/>
			
				<linearGradient id="SVGID_00000067945628220539618750000004590137043413429649_" gradientUnits="userSpaceOnUse" x1="202.5254" y1="278.482" x2="191.6389" y2="313.2085">
				<stop  offset="0" style="stop-color:#FFFFFF"/>
				<stop  offset="1" style="stop-color:#FFFFFF;stop-opacity:0"/>
			</linearGradient>
			<circle style="fill:url(#SVGID_00000067945628220539618750000004590137043413429649_);" cx="199.067" cy="289.514" r="3.309"/>
			
				<linearGradient id="SVGID_00000179613278304618365060000015611969773091495581_" gradientUnits="userSpaceOnUse" x1="720.36" y1="209.8623" x2="709.4735" y2="244.5888">
				<stop  offset="0" style="stop-color:#FFFFFF"/>
				<stop  offset="1" style="stop-color:#FFFFFF;stop-opacity:0"/>
			</linearGradient>
			<path style="fill:url(#SVGID_00000179613278304618365060000015611969773091495581_);" d="M720.211,220.894
				c0,1.828-1.482,3.309-3.309,3.309c-1.828,0-3.309-1.481-3.309-3.309c0-1.828,1.482-3.309,3.309-3.309
				C718.729,217.585,720.211,219.066,720.211,220.894z"/>
			
				<linearGradient id="SVGID_00000052818076182556418260000001916740061613144228_" gradientUnits="userSpaceOnUse" x1="546.865" y1="262.0961" x2="535.9785" y2="296.8226">
				<stop  offset="0" style="stop-color:#FFFFFF"/>
				<stop  offset="1" style="stop-color:#FFFFFF;stop-opacity:0"/>
			</linearGradient>
			<circle style="fill:url(#SVGID_00000052818076182556418260000001916740061613144228_);" cx="543.407" cy="273.128" r="3.309"/>
			
				<linearGradient id="SVGID_00000166652766571365570020000004381753737992114822_" gradientUnits="userSpaceOnUse" x1="210.567" y1="200.5642" x2="199.6805" y2="235.2906">
				<stop  offset="0" style="stop-color:#FFFFFF"/>
				<stop  offset="1" style="stop-color:#FFFFFF;stop-opacity:0"/>
			</linearGradient>
			<circle style="fill:url(#SVGID_00000166652766571365570020000004381753737992114822_);" cx="207.109" cy="211.596" r="3.309"/>
			
				<linearGradient id="SVGID_00000031195651427379490550000013180758950420449725_" gradientUnits="userSpaceOnUse" x1="36.5567" y1="206.4698" x2="25.6702" y2="241.1963">
				<stop  offset="0" style="stop-color:#FFFFFF"/>
				<stop  offset="1" style="stop-color:#FFFFFF;stop-opacity:0"/>
			</linearGradient>
			<path style="fill:url(#SVGID_00000031195651427379490550000013180758950420449725_);" d="M36.408,217.502
				c0,1.828-1.482,3.309-3.309,3.309c-1.828,0-3.309-1.482-3.309-3.309c0-1.828,1.482-3.309,3.309-3.309
				C34.926,214.192,36.408,215.674,36.408,217.502z"/>
		</g>
	</g>
	<g>
		<g>
			<defs>
				
					<rect id="SVGID_00000093886660070032609650000011778899553808298378_" x="184.824" y="358.824" width="372.824" height="141.179"/>
			</defs>
			<clipPath id="SVGID_00000124871769551659760820000018121173210481153175_">
				<use xlink:href="#SVGID_00000093886660070032609650000011778899553808298378_"  style="overflow:visible;"/>
			</clipPath>
			<g style="clip-path:url(#SVGID_00000124871769551659760820000018121173210481153175_);">
				<g>
					
						<linearGradient id="SVGID_00000094607459822443210350000003837697524147505584_" gradientUnits="userSpaceOnUse" x1="1005.5582" y1="425.3578" x2="1022.3002" y2="278.1681" gradientTransform="matrix(0.9952 -0.0983 0.0983 0.9952 -583.2398 118.743)">
						<stop  offset="0" style="stop-color:#4A8E87"/>
						<stop  offset="1" style="stop-color:#97D8B6"/>
					</linearGradient>
					<path style="fill:url(#SVGID_00000094607459822443210350000003837697524147505584_);" d="M446.544,494.087
						c-13.914-27.578-6.263-82.474,32.688-119.117c-5.568,18.766-0.791,144.322-23.048,140.335
						C433.928,511.317,446.544,494.087,446.544,494.087z"/>
					
						<path style="opacity:0.15;fill:none;stroke:#000000;stroke-width:1.9572;stroke-linecap:round;stroke-linejoin:round;stroke-miterlimit:10;" d="
						M453.036,499.353c0,0-6.585-66.897,19.06-111.68"/>
				</g>
				<g>
					
						<linearGradient id="SVGID_00000172422109500049489830000004830306201941434043_" gradientUnits="userSpaceOnUse" x1="966.3247" y1="707.5464" x2="1126.3027" y2="613.2957" gradientTransform="matrix(0.9501 -0.3121 0.3121 0.9501 -681.8129 154.1977)">
						<stop  offset="0" style="stop-color:#4A8E87"/>
						<stop  offset="1" style="stop-color:#97D8B6"/>
					</linearGradient>
					<path style="fill:url(#SVGID_00000172422109500049489830000004830306201941434043_);" d="M469.335,495.426
						c8.206-26.519,48.491-45.953,48.491-45.953s1.566,34.405-23.047,51.954C470.165,518.977,469.335,495.426,469.335,495.426z"/>
					
						<path style="opacity:0.15;fill:none;stroke:#000000;stroke-width:1.9572;stroke-linecap:round;stroke-linejoin:round;stroke-miterlimit:10;" d="
						M514.274,454.556c-8.935,25.453-38.544,46.486-38.544,46.486"/>
				</g>
				<g>
					
						<linearGradient id="SVGID_00000150789738456216065510000005590046631519684021_" gradientUnits="userSpaceOnUse" x1="999.6668" y1="483.2263" x2="1055.9437" y2="435.7862" gradientTransform="matrix(0.9986 -0.052 0.052 0.9986 -560.9306 110.4753)">
						<stop  offset="0" style="stop-color:#4A8E87"/>
						<stop  offset="1" style="stop-color:#97D8B6"/>
					</linearGradient>
					<path style="fill:url(#SVGID_00000150789738456216065510000005590046631519684021_);" d="M503.054,509.041
						c27.615-2.829,54.594-38.503,54.594-38.503s-33.425-8.304-55.473,12.376S503.054,509.041,503.054,509.041z"/>
					
						<path style="opacity:0.15;fill:none;stroke:#000000;stroke-width:1.9572;stroke-linecap:round;stroke-linejoin:round;stroke-miterlimit:10;" d="
						M551.966,473.021c-26.714,3.753-53.161,28.646-53.161,28.646"/>
				</g>
				<g>
					
						<linearGradient id="SVGID_00000182528760698789623160000011996800073685651390_" gradientUnits="userSpaceOnUse" x1="959.7211" y1="573.9288" x2="1058.9879" y2="363.9417" gradientTransform="matrix(0.996 -0.0897 0.0897 0.996 -579.4548 117.412)">
						<stop  offset="0" style="stop-color:#4A8E87"/>
						<stop  offset="1" style="stop-color:#97D8B6"/>
					</linearGradient>
					<path style="fill:url(#SVGID_00000182528760698789623160000011996800073685651390_);" d="M449.963,491.848
						c-1.688-30.843,27.333-78.065,77.708-96.015c-12.625,14.959-58.595,131.895-77.385,119.318
						C431.496,502.574,449.963,491.848,449.963,491.848z"/>
					
						<path style="opacity:0.15;fill:none;stroke:#000000;stroke-width:1.9572;stroke-linecap:round;stroke-linejoin:round;stroke-miterlimit:10;" d="
						M453.798,499.276c0,0,20.791-63.924,62.242-94.666"/>
				</g>
				<g>
					
						<linearGradient id="SVGID_00000142161685567576440040000010065885415333051268_" gradientUnits="userSpaceOnUse" x1="1009.676" y1="371.6388" x2="1027.9614" y2="467.0098" gradientTransform="matrix(0.9936 -0.1125 0.1125 0.9936 -590.4912 119.5918)">
						<stop  offset="0" style="stop-color:#FFC5AB"/>
						<stop  offset="1" style="stop-color:#F37270"/>
					</linearGradient>
					<path style="fill:url(#SVGID_00000142161685567576440040000010065885415333051268_);" d="M466.82,429.152
						c-1.198-5.006-10.575-11.341-4.901-14.599c5.675-3.259,8.898,14.056,8.898,14.056s-1.517-15.781,4.075-15.79
						c5.592-0.008,1.744,15.401,1.744,15.401s5.027-9.77,10.991-7.289c5.964,2.482-8.104,10.479-8.104,10.479
						s14.675-1.842,13.452,4.881c-1.223,6.723-12.868-0.527-12.868-0.527s10.323,9.114,6.302,12.636
						c-4.021,3.522-8.508-2.645-9.812-10.976c-0.509,12.235-3.113,16.319-8.287,12.845c-5.174-3.473,4.286-13.926,4.286-13.926
						s-9.432,9.908-14.438,6.326s10.056-9.969,10.056-9.969s-14.652,7.623-15.051,1.705
						C452.764,428.489,466.82,429.152,466.82,429.152z"/>
					
						<linearGradient id="SVGID_00000067941330520708110600000000255515239184579216_" gradientUnits="userSpaceOnUse" x1="1022.7105" y1="430.4719" x2="1092.626" y2="522.6168" gradientTransform="matrix(0.9936 -0.1125 0.1125 0.9936 -590.4912 119.5918)">
						<stop  offset="0" style="stop-color:#FFC5AB"/>
						<stop  offset="1" style="stop-color:#F37270"/>
					</linearGradient>
					<path style="fill:url(#SVGID_00000067941330520708110600000000255515239184579216_);" d="M479.693,431.403
						c0.361,3.191-1.933,6.072-5.124,6.433c-3.191,0.362-6.072-1.933-6.433-5.124c-0.362-3.191,1.933-6.072,5.124-6.433
						C476.452,425.917,479.332,428.211,479.693,431.403z"/>
				</g>
				<g>
					
						<linearGradient id="SVGID_00000060752865208063902020000015247137160182072500_" gradientUnits="userSpaceOnUse" x1="841.6193" y1="938.0207" x2="859.9045" y2="1033.39" gradientTransform="matrix(0.7859 -0.6183 0.6183 0.7859 -782.3591 226.6309)">
						<stop  offset="0" style="stop-color:#FFBBE0"/>
						<stop  offset="1" style="stop-color:#A154BE"/>
					</linearGradient>
					<path style="fill:url(#SVGID_00000060752865208063902020000015247137160182072500_);" d="M497.843,482.817
						c-3.652-3.627-14.959-4.083-11.847-9.839c3.112-5.756,14.961,7.275,14.961,7.275s-9.59-12.624-4.839-15.572
						c4.751-2.948,9.584,12.181,9.584,12.181s-0.863-10.954,5.515-11.98c6.378-1.026-1.381,13.175-1.381,13.175
						s11.512-9.285,14.008-2.924c2.496,6.362-11.222,6.32-11.222,6.32s13.574,2.322,12.006,7.433
						c-1.567,5.111-8.627,2.226-14.118-4.174c6.003,10.674,5.935,15.516-0.292,15.284c-6.227-0.233-3.679-14.098-3.679-14.098
						s-2.81,13.388-8.952,12.974c-6.142-0.414,3.31-13.767,3.31-13.767s-8.452,14.19-11.905,9.366
						C485.539,489.647,497.843,482.817,497.843,482.817z"/>
					
						<linearGradient id="SVGID_00000072960100834175093560000014803227424416377269_" gradientUnits="userSpaceOnUse" x1="343.2967" y1="480.4637" x2="345.4672" y2="505.8892" gradientTransform="matrix(-0.9936 0.1125 0.1125 0.9936 792.3687 -37.4664)">
						<stop  offset="0" style="stop-color:#FFBBE0"/>
						<stop  offset="1" style="stop-color:#A154BE"/>
					</linearGradient>
					<path style="fill:url(#SVGID_00000072960100834175093560000014803227424416377269_);" d="M509.975,477.961
						c1.986,2.524,1.55,6.181-0.975,8.167c-2.524,1.986-6.181,1.55-8.167-0.975c-1.986-2.524-1.55-6.181,0.974-8.167
						C504.333,475,507.989,475.436,509.975,477.961z"/>
				</g>
			</g>
			<g style="clip-path:url(#SVGID_00000124871769551659760820000018121173210481153175_);">
				<g>
					
						<linearGradient id="SVGID_00000132082367121166293150000008805590347117997738_" gradientUnits="userSpaceOnUse" x1="573.2975" y1="382.6616" x2="590.0396" y2="235.4719" gradientTransform="matrix(-0.9952 -0.0983 -0.0983 0.9952 891.3296 118.743)">
						<stop  offset="0" style="stop-color:#4A8E87"/>
						<stop  offset="1" style="stop-color:#97D8B6"/>
					</linearGradient>
					<path style="fill:url(#SVGID_00000132082367121166293150000008805590347117997738_);" d="M295.929,494.087
						c13.914-27.578,6.263-82.474-32.688-119.117c5.568,18.766,0.791,144.322,23.048,140.335
						C308.545,511.317,295.929,494.087,295.929,494.087z"/>
					
						<path style="opacity:0.15;fill:none;stroke:#000000;stroke-width:1.9572;stroke-linecap:round;stroke-linejoin:round;stroke-miterlimit:10;" d="
						M289.437,499.353c0,0,6.585-66.897-19.061-111.68"/>
				</g>
				<g>
					
						<linearGradient id="SVGID_00000117650690646145137880000003793136901817690248_" gradientUnits="userSpaceOnUse" x1="553.6573" y1="571.9886" x2="713.6354" y2="477.7378" gradientTransform="matrix(-0.9501 -0.3121 -0.3121 0.9501 989.9027 154.1977)">
						<stop  offset="0" style="stop-color:#4A8E87"/>
						<stop  offset="1" style="stop-color:#97D8B6"/>
					</linearGradient>
					<path style="fill:url(#SVGID_00000117650690646145137880000003793136901817690248_);" d="M273.137,495.426
						c-8.206-26.519-48.49-45.953-48.49-45.953s-1.566,34.405,23.047,51.954C272.307,518.977,273.137,495.426,273.137,495.426z"/>
					
						<path style="opacity:0.15;fill:none;stroke:#000000;stroke-width:1.9572;stroke-linecap:round;stroke-linejoin:round;stroke-miterlimit:10;" d="
						M228.199,454.556c8.935,25.453,38.544,46.486,38.544,46.486"/>
				</g>
				<g>
					
						<linearGradient id="SVGID_00000046333226029179132930000004898941422243187341_" gradientUnits="userSpaceOnUse" x1="565.8513" y1="460.6362" x2="622.1281" y2="413.1961" gradientTransform="matrix(-0.9986 -0.052 -0.052 0.9986 869.0204 110.4753)">
						<stop  offset="0" style="stop-color:#4A8E87"/>
						<stop  offset="1" style="stop-color:#97D8B6"/>
					</linearGradient>
					<path style="fill:url(#SVGID_00000046333226029179132930000004898941422243187341_);" d="M239.419,509.041
						c-27.615-2.829-54.594-38.503-54.594-38.503s33.425-8.304,55.473,12.376S239.419,509.041,239.419,509.041z"/>
					
						<path style="opacity:0.15;fill:none;stroke:#000000;stroke-width:1.9572;stroke-linecap:round;stroke-linejoin:round;stroke-miterlimit:10;" d="
						M190.507,473.021c26.714,3.753,53.161,28.646,53.161,28.646"/>
				</g>
				<g>
					
						<linearGradient id="SVGID_00000034080772659974325390000015383016935509249163_" gradientUnits="userSpaceOnUse" x1="527.1026" y1="534.9671" x2="626.3694" y2="324.9799" gradientTransform="matrix(-0.996 -0.0897 -0.0897 0.996 887.5446 117.412)">
						<stop  offset="0" style="stop-color:#4A8E87"/>
						<stop  offset="1" style="stop-color:#97D8B6"/>
					</linearGradient>
					<path style="fill:url(#SVGID_00000034080772659974325390000015383016935509249163_);" d="M292.51,491.848
						c1.688-30.843-27.333-78.065-77.708-96.015c12.626,14.959,58.595,131.895,77.385,119.318
						C310.976,502.574,292.51,491.848,292.51,491.848z"/>
					
						<path style="opacity:0.15;fill:none;stroke:#000000;stroke-width:1.9572;stroke-linecap:round;stroke-linejoin:round;stroke-miterlimit:10;" d="
						M288.674,499.276c0,0-20.791-63.924-62.242-94.666"/>
				</g>
				<g>
					
						<linearGradient id="SVGID_00000080188985889463943260000014990363677941794190_" gradientUnits="userSpaceOnUse" x1="578.0288" y1="322.7657" x2="596.3143" y2="418.1367" gradientTransform="matrix(-0.9936 -0.1125 -0.1125 0.9936 898.581 119.5918)">
						<stop  offset="0" style="stop-color:#FFC5AB"/>
						<stop  offset="1" style="stop-color:#F37270"/>
					</linearGradient>
					<path style="fill:url(#SVGID_00000080188985889463943260000014990363677941794190_);" d="M275.652,429.152
						c1.198-5.006,10.575-11.341,4.901-14.599c-5.675-3.259-8.898,14.056-8.898,14.056s1.517-15.781-4.075-15.79
						c-5.592-0.008-1.744,15.401-1.744,15.401s-5.027-9.77-10.991-7.289c-5.964,2.482,8.104,10.479,8.104,10.479
						s-14.675-1.842-13.452,4.881c1.223,6.723,12.868-0.527,12.868-0.527s-10.323,9.114-6.302,12.636
						c4.021,3.522,8.508-2.645,9.812-10.976c0.509,12.235,3.113,16.319,8.287,12.845c5.174-3.473-4.286-13.926-4.286-13.926
						s9.432,9.908,14.438,6.326s-10.056-9.969-10.056-9.969s14.652,7.623,15.051,1.705
						C289.709,428.489,275.652,429.152,275.652,429.152z"/>
					
						<linearGradient id="SVGID_00000049196346651534103750000005913897550321070222_" gradientUnits="userSpaceOnUse" x1="591.0633" y1="381.5988" x2="660.9788" y2="473.7437" gradientTransform="matrix(-0.9936 -0.1125 -0.1125 0.9936 898.581 119.5918)">
						<stop  offset="0" style="stop-color:#FFC5AB"/>
						<stop  offset="1" style="stop-color:#F37270"/>
					</linearGradient>
					<path style="fill:url(#SVGID_00000049196346651534103750000005913897550321070222_);" d="M262.779,431.403
						c-0.361,3.191,1.933,6.072,5.124,6.433c3.191,0.362,6.072-1.933,6.433-5.124c0.362-3.191-1.933-6.072-5.124-6.433
						C266.021,425.917,263.141,428.211,262.779,431.403z"/>
				</g>
				<g>
					
						<linearGradient id="SVGID_00000119077311881815582680000010007188801401051304_" gradientUnits="userSpaceOnUse" x1="500.2153" y1="669.424" x2="518.5004" y2="764.7934" gradientTransform="matrix(-0.7859 -0.6183 -0.6183 0.7859 1090.449 226.6309)">
						<stop  offset="0" style="stop-color:#FFBBE0"/>
						<stop  offset="1" style="stop-color:#A154BE"/>
					</linearGradient>
					<path style="fill:url(#SVGID_00000119077311881815582680000010007188801401051304_);" d="M244.63,482.817
						c3.652-3.627,14.959-4.083,11.847-9.839c-3.112-5.756-14.961,7.275-14.961,7.275s9.59-12.624,4.839-15.572
						c-4.751-2.948-9.584,12.181-9.584,12.181s0.863-10.954-5.515-11.98c-6.378-1.026,1.381,13.175,1.381,13.175
						s-11.512-9.285-14.008-2.924c-2.496,6.362,11.222,6.32,11.222,6.32s-13.574,2.322-12.006,7.433
						c1.567,5.111,8.627,2.226,14.118-4.174c-6.003,10.674-5.935,15.516,0.292,15.284c6.227-0.233,3.679-14.098,3.679-14.098
						s2.81,13.388,8.952,12.974c6.142-0.414-3.31-13.767-3.31-13.767s8.452,14.19,11.905,9.366
						C256.934,489.647,244.63,482.817,244.63,482.817z"/>
					
						<linearGradient id="SVGID_00000041984914771689598660000010095450606111084986_" gradientUnits="userSpaceOnUse" x1="774.9438" y1="431.5906" x2="777.1143" y2="457.0161" gradientTransform="matrix(0.9936 0.1125 -0.1125 0.9936 -484.2788 -37.4664)">
						<stop  offset="0" style="stop-color:#FFBBE0"/>
						<stop  offset="1" style="stop-color:#A154BE"/>
					</linearGradient>
					<path style="fill:url(#SVGID_00000041984914771689598660000010095450606111084986_);" d="M232.498,477.961
						c-1.986,2.524-1.55,6.181,0.975,8.167c2.524,1.986,6.181,1.55,8.167-0.975c1.986-2.524,1.55-6.181-0.975-8.167
						C238.14,475,234.484,475.436,232.498,477.961z"/>
				</g>
			</g>
		</g>
		<g>
			<defs>
				<rect id="SVGID_00000165194327824916905230000007582170522168042373_" x="0.3" y="301.667" width="173.091" height="198.336"/>
			</defs>
			<clipPath id="SVGID_00000129182150826203416490000004617247594888023456_">
				<use xlink:href="#SVGID_00000165194327824916905230000007582170522168042373_"  style="overflow:visible;"/>
			</clipPath>
			<g style="clip-path:url(#SVGID_00000129182150826203416490000004617247594888023456_);">
				<g>
					<g>
						
							<linearGradient id="SVGID_00000009552815297669010260000016542527322956936065_" gradientUnits="userSpaceOnUse" x1="18.5731" y1="415.8202" x2="44.1808" y2="190.6865">
							<stop  offset="0" style="stop-color:#4A8E87"/>
							<stop  offset="1" style="stop-color:#97D8B6"/>
						</linearGradient>
						<path style="fill:url(#SVGID_00000009552815297669010260000016542527322956936065_);" d="M60.18,315.06
							c-3.85,9.05-7.97,35.77-12.95,67.25c-0.55,3.47-1.11,7-1.68,10.58c-0.34,2.09-0.68,4.19-1.02,6.31
							c-0.08,0.51-0.16,1.02-0.25,1.53c-0.73,4.49-1.47,9.01-2.23,13.55c-0.09,0.47-0.17,0.94-0.25,1.41
							c-1.1,6.51-2.24,13.03-3.43,19.47c-0.08,0.44-0.16,0.87-0.24,1.31c-0.79,4.24-1.6,8.44-2.43,12.58
							c-0.31,1.59-0.64,3.17-0.96,4.74c-0.27,1.3-0.54,2.59-0.81,3.87c-0.92,4.32-1.87,8.54-2.84,12.62
							c-0.83,3.49-1.67,6.87-2.54,10.14c-0.37,1.39-0.74,2.77-1.12,4.11c-0.4,1.43-0.8,2.84-1.22,4.21
							c-3.34,11.29-6.98,20.69-10.96,27.11c-4.22,6.85-8.84,10.31-13.89,9.1c-0.16-0.04-0.33-0.08-0.49-0.13
							c-28.44-8.49-16.25-27.36-12.16-32.6c0,0,0-0.01,0.01-0.01c0.68-0.87,1.13-1.36,1.13-1.36c-9.02-24.36-6.73-60.11,8-95.54
							C9.98,366.16,30.54,337.23,60.18,315.06z"/>
						
							<path style="opacity:0.15;fill:none;stroke:#000000;stroke-width:3;stroke-linecap:round;stroke-linejoin:round;stroke-miterlimit:10;" d="
							M-1.175,499.987c0,0,1.509-103.025,48.294-166.809"/>
					</g>
					<g>
						
							<linearGradient id="SVGID_00000116953054659474352520000016036006641784883594_" gradientUnits="userSpaceOnUse" x1="-7.963" y1="524.9386" x2="230.0322" y2="384.7241">
							<stop  offset="0" style="stop-color:#4A8E87"/>
							<stop  offset="1" style="stop-color:#97D8B6"/>
						</linearGradient>
						<path style="fill:url(#SVGID_00000116953054659474352520000016036006641784883594_);" d="M106.11,435.19
							c0,0-1.24,18.37-10.6,38.05c-3.26,6.86-7.51,13.88-13.04,20.33c-5.47,6.38-12.19,12.2-20.43,16.78
							c-0.73,0.4-1.44,0.79-2.14,1.15c-24.89,13.04-32.45,2.91-34.69-5.77c-1.21-4.66-0.88-8.91-0.88-8.91
							c0.97-2.21,2.09-4.37,3.35-6.48c2.22-3.73,4.85-7.28,7.79-10.66c0.18-0.22,0.37-0.43,0.56-0.64c2.99-3.38,6.28-6.58,9.75-9.59
							c0.9-0.79,1.81-1.55,2.73-2.3c0.19-0.17,0.38-0.33,0.58-0.47c3.94-3.21,8.06-6.18,12.2-8.93c0.03-0.02,0.07-0.04,0.11-0.07
							C83.44,443.12,106.11,435.19,106.11,435.19z"/>
						
							<path style="opacity:0.15;fill:none;stroke:#000000;stroke-width:3;stroke-linecap:round;stroke-linejoin:round;stroke-miterlimit:10;" d="
							M99.822,442.32c-18,37.226-66.724,64.153-66.724,64.153"/>
					</g>
					<g>
						
							<linearGradient id="SVGID_00000169532114552890851260000014475235408352661941_" gradientUnits="userSpaceOnUse" x1="12.1521" y1="570.0399" x2="96.9139" y2="498.5876">
							<stop  offset="0" style="stop-color:#4A8E87"/>
							<stop  offset="1" style="stop-color:#97D8B6"/>
						</linearGradient>
						<path style="fill:url(#SVGID_00000169532114552890851260000014475235408352661941_);" d="M163.13,474.15
							c0,0-17.02,17.89-39.82,32.1c-15.19,9.47-32.96,17.3-49.97,17.12c0,0-10.47-3.77-13.44-11.87c-1.07-2.91-1.16-6.39,0.56-10.46
							c1.28-3.02,3.57-6.37,7.2-10.04c0.83-0.85,1.73-1.7,2.7-2.57c0.26-0.24,0.52-0.47,0.79-0.71c1.59-1.38,3.37-2.81,5.35-4.29
							c1.18-0.88,2.36-1.71,3.56-2.48c5.01-3.3,10.21-5.82,15.45-7.71C128.55,461.28,163.13,474.15,163.13,474.15z"/>
						
							<path style="opacity:0.15;fill:none;stroke:#000000;stroke-width:3;stroke-linecap:round;stroke-linejoin:round;stroke-miterlimit:10;" d="
							M154.045,476.946c-41.334,1.109-85.909,34.459-85.909,34.459"/>
					</g>
					<g>
						
							<linearGradient id="SVGID_00000042734216463334493540000000921700862299868833_" gradientUnits="userSpaceOnUse" x1="-51.2922" y1="655.2313" x2="100.0722" y2="335.0375">
							<stop  offset="0" style="stop-color:#4A8E87"/>
							<stop  offset="1" style="stop-color:#97D8B6"/>
						</linearGradient>
						<path style="fill:url(#SVGID_00000042734216463334493540000000921700862299868833_);" d="M130.36,355.19
							c-11.09,10.48-39.87,59.64-68.96,102.49c-0.04,0.06-0.08,0.12-0.13,0.19c-2.24,3.31-4.5,6.59-6.75,9.81
							c-1.36,1.95-2.71,3.87-4.07,5.77c-1.76,2.48-3.52,4.91-5.27,7.29c-2.41,3.28-4.8,6.46-7.17,9.51
							c-4.39,5.68-8.68,10.89-12.8,15.48c-3.45,3.86-6.79,7.27-9.96,10.12c-5.12,4.62-9.8,7.79-13.89,9.1
							c-3.67,1.16-6.86,0.81-9.45-1.38c-17.69-14.97-10.14-25.81-3.2-31.35c0,0,0-0.01,0.01-0.01c3.43-2.74,6.72-4.18,6.72-4.18
							c0.53-9.15,2.93-19.04,7.02-29.17c3.37-8.35,7.9-16.87,13.5-25.28c0.55-0.85,1.13-1.7,1.72-2.55
							c3.84-5.54,8.13-11.02,12.87-16.36c3.41-3.86,7.06-7.65,10.93-11.31c0.92-0.89,1.85-1.76,2.8-2.63c1.09-1,2.21-2,3.34-2.98
							C69.58,378.57,97.66,362.83,130.36,355.19z"/>
						
							<path style="opacity:0.15;fill:none;stroke:#000000;stroke-width:3;stroke-linecap:round;stroke-linejoin:round;stroke-miterlimit:10;" d="
							M0,500c0,0,42.693-93.774,111.129-133.447"/>
					</g>
					<g>
						
							<linearGradient id="SVGID_00000065049904955840283610000000996373547184292736_" gradientUnits="userSpaceOnUse" x1="33.2665" y1="386.618" x2="61.2934" y2="532.7969">
							<stop  offset="0" style="stop-color:#FFC5AB"/>
							<stop  offset="1" style="stop-color:#F37270"/>
						</linearGradient>
						<path style="fill:url(#SVGID_00000065049904955840283610000000996373547184292736_);" d="M42.689,470.814
							c-0.962-7.831-14.151-19.097-4.946-23.081c9.205-3.984,11.128,22.944,11.128,22.944s0.412-24.297,8.93-23.346
							c8.518,0.952,0,23.758,0,23.758s9.342-14.013,17.998-9.205s-14.151,14.563-14.151,14.563s22.669-0.275,19.646,9.754
							c-3.022,10.029-19.509-3.022-19.509-3.022s14.151,15.662,7.419,20.333c-6.732,4.671-12.502-5.495-13.052-18.41
							c-2.885,18.547-7.556,24.317-14.838,18.135c-7.282-6.182,8.93-20.471,8.93-20.471s-16.074,13.464-23.081,7.144
							s17.036-13.448,17.036-13.448s-23.63,9.083-23.218,0C21.395,467.379,42.689,470.814,42.689,470.814z"/>
						
							<linearGradient id="SVGID_00000124876546925243689250000012059809571987358135_" gradientUnits="userSpaceOnUse" x1="53.2451" y1="476.7939" x2="160.4062" y2="618.0267">
							<stop  offset="0" style="stop-color:#FFC5AB"/>
							<stop  offset="1" style="stop-color:#F37270"/>
						</linearGradient>
						<circle style="fill:url(#SVGID_00000124876546925243689250000012059809571987358135_);" cx="52.993" cy="476.462" r="8.914"/>
					</g>
					<g>
						
							<linearGradient id="SVGID_00000099633717870046872400000000501118380133062032_" gradientUnits="userSpaceOnUse" x1="11.3745" y1="307.9397" x2="39.4012" y2="454.1178" gradientTransform="matrix(0.8505 -0.526 0.526 0.8505 -202.6847 84.1485)">
							<stop  offset="0" style="stop-color:#FFBBE0"/>
							<stop  offset="1" style="stop-color:#A154BE"/>
						</linearGradient>
						<path style="fill:url(#SVGID_00000099633717870046872400000000501118380133062032_);" d="M21.267,406.719
							C16.33,400.565-0.813,397.92,4.92,389.69c5.733-8.23,21.532,13.66,21.532,13.66s-12.429-20.882-4.684-24.553
							c7.745-3.671,12.496,20.206,12.496,20.206s0.575-16.832,10.466-17.295c9.89-0.463-4.376,19.829-4.376,19.829
							s19.135-12.157,21.84-2.037c2.704,10.12-18.182,7.69-18.182,7.69s20.273,5.878,17.004,13.391
							c-3.269,7.514-13.524,1.902-20.783-8.793c7.301,17.292,6.363,24.656-3.081,23.228c-9.445-1.428-3.172-22.107-3.172-22.107
							s-6.59,19.906-15.873,18.216c-9.283-1.69,7.416-20.398,7.416-20.398s-15.32,20.154-19.747,12.212
							C1.349,414.999,21.267,406.719,21.267,406.719z"/>
						
							<linearGradient id="SVGID_00000183966444510459249370000000841256001531016069_" gradientUnits="userSpaceOnUse" x1="29.8122" y1="392.8761" x2="42.6439" y2="446.1037">
							<stop  offset="0" style="stop-color:#FFBBE0"/>
							<stop  offset="1" style="stop-color:#A154BE"/>
						</linearGradient>
						<path style="fill:url(#SVGID_00000183966444510459249370000000841256001531016069_);" d="M40.583,401.415
							c2.589,4.187,1.294,9.681-2.893,12.271s-9.681,1.294-12.27-2.893c-2.59-4.187-1.294-9.681,2.893-12.27
							C32.5,395.933,37.993,397.228,40.583,401.415z"/>
					</g>
				</g>
				<path style="opacity:0.25;" d="M123.31,506.25c-15.19,9.47-32.96,17.3-49.97,17.12c0,0-10.47-3.77-13.44-11.87
					c-24.89,13.04-32.45,2.91-34.69-5.77c-3.45,3.86-6.79,7.27-9.96,10.12c-4.22,6.85-8.84,10.31-13.89,9.1
					c-3.67,1.16-6.86,0.81-9.45-1.38c-17.69-14.97-10.14-25.81-3.2-31.35c0,0,0-0.01,0.01-0.01c0.68-0.87,1.13-1.36,1.13-1.36
					c-9.02-24.36-6.73-60.11,8-95.54c2.64,7.48,5.59,14.56,8.82,21.26c0.86,1.79,1.75,3.56,2.66,5.3c0.43,0.85,0.88,1.69,1.33,2.53
					c1.7,3.15,3.47,6.21,5.3,9.18c3.79,6.14,7.84,11.88,12.16,17.23v0.01c1.89,2.35,3.83,4.63,5.81,6.84c1.96,2.17,3.96,4.26,6,6.28
					c1.91,1.9,3.86,3.74,5.85,5.51c0.28,0.26,0.57,0.51,0.86,0.76c1.25,1.11,2.52,2.19,3.81,3.24c3.3,2.71,6.69,5.26,10.16,7.65
					c1.46,1.01,2.94,1.98,4.43,2.92c2.01,1.29,4.05,2.52,6.11,3.7c1.31,0.75,2.63,1.47,3.96,2.18c2.42,1.29,4.87,2.51,7.36,3.67
					c2.74,1.27,5.52,2.47,8.33,3.58C101.19,501.26,112.07,504.28,123.31,506.25z"/>
			</g>
		</g>
		<g>
			<defs>
				
					<rect id="SVGID_00000026128403372990565870000005100774976536273047_" x="574.02" y="304.545" width="175.98" height="195.455"/>
			</defs>
			<clipPath id="SVGID_00000029755127506641448970000001136184126100814500_">
				<use xlink:href="#SVGID_00000026128403372990565870000005100774976536273047_"  style="overflow:visible;"/>
			</clipPath>
			<g style="clip-path:url(#SVGID_00000029755127506641448970000001136184126100814500_);">
				<g>
					<g>
						
							<linearGradient id="SVGID_00000132769867436007227210000015697275711346677655_" gradientUnits="userSpaceOnUse" x1="727.8212" y1="418.5782" x2="751.9004" y2="206.883">
							<stop  offset="0" style="stop-color:#4A8E87"/>
							<stop  offset="1" style="stop-color:#97D8B6"/>
						</linearGradient>
						<path style="fill:url(#SVGID_00000132769867436007227210000015697275711346677655_);" d="M749.13,524.82
							c-0.16,0.05-0.33,0.09-0.49,0.13c-5.05,1.21-9.67-2.25-13.89-9.1c-8.2-13.24-14.96-39.12-20.72-68.12
							c-0.73-3.71-1.45-7.47-2.16-11.26c-0.52-2.8-1.03-5.62-1.53-8.45c-1.07-5.99-2.1-12.03-3.1-18.03
							c-0.52-3.1-1.02-6.19-1.52-9.26c-0.43-2.65-0.86-5.29-1.28-7.91c-1.11-6.94-2.17-13.73-3.2-20.23
							c-4.31-27.16-7.98-49.43-11.42-57.53c26.66,19.94,45.97,45.34,58.42,71.47c18.19,38.2,21.67,77.94,11.91,104.32
							c0,0,0.45,0.49,1.13,1.36c0.01,0,0.01,0.01,0.01,0.01C765.38,497.46,777.57,516.33,749.13,524.82z"/>
						
							<path style="opacity:0.15;fill:none;stroke:#000000;stroke-width:3;stroke-linecap:round;stroke-linejoin:round;stroke-miterlimit:10;" d="
							M751.174,499.987c0,0-1.509-103.025-48.294-166.809"/>
					</g>
					<g>
						
							<linearGradient id="SVGID_00000064346346462027256340000007192421326210327991_" gradientUnits="userSpaceOnUse" x1="646.7125" y1="495.6485" x2="758.9612" y2="429.5174">
							<stop  offset="0" style="stop-color:#4A8E87"/>
							<stop  offset="1" style="stop-color:#97D8B6"/>
						</linearGradient>
						<path style="fill:url(#SVGID_00000064346346462027256340000007192421326210327991_);" d="M724.79,505.73
							c-2.24,8.68-9.8,18.81-34.69,5.77c-0.7-0.36-1.41-0.75-2.14-1.15c-1.89-1.05-3.69-2.16-5.42-3.32
							c-4.12-2.79-7.8-5.9-11.09-9.22c-0.92-0.92-1.8-1.86-2.66-2.81c-0.66-0.74-1.31-1.48-1.93-2.24c-0.76-0.9-1.48-1.8-2.18-2.72
							c-1.92-2.5-3.66-5.05-5.23-7.64c-1.7-2.76-3.21-5.55-4.55-8.31c-0.14-0.29-0.28-0.57-0.41-0.85
							c-9.36-19.68-10.6-38.05-10.6-38.05s22.67,7.93,44.71,22.49c3.65,2.41,7.28,5,10.78,7.76c11.11,8.76,21,19.29,26.29,31.38
							C725.67,496.82,726,501.07,724.79,505.73z"/>
						
							<path style="opacity:0.15;fill:none;stroke:#000000;stroke-width:3;stroke-linecap:round;stroke-linejoin:round;stroke-miterlimit:10;" d="
							M650.178,442.32c18,37.226,66.724,64.153,66.724,64.153"/>
					</g>
					<g>
						
							<linearGradient id="SVGID_00000148645517325226382020000008552178467860743319_" gradientUnits="userSpaceOnUse" x1="584.5146" y1="539.6385" x2="635.3533" y2="496.7828">
							<stop  offset="0" style="stop-color:#4A8E87"/>
							<stop  offset="1" style="stop-color:#97D8B6"/>
						</linearGradient>
						<path style="fill:url(#SVGID_00000148645517325226382020000008552178467860743319_);" d="M690.1,511.5
							c-2.97,8.1-13.44,11.87-13.44,11.87c-15.77,0.17-32.19-6.55-46.6-15.08c-24.48-14.47-43.19-34.14-43.19-34.14
							s34.58-12.87,67.62-0.91c1.72,0.62,3.43,1.3,5.13,2.06c0.63,0.28,1.26,0.58,1.89,0.89c4.09,1.95,8.11,4.34,11.99,7.24
							c1.03,0.76,2,1.52,2.92,2.26c0.11,0.09,0.23,0.18,0.34,0.28c6.06,4.93,9.81,9.34,11.9,13.25
							C691.27,504.08,691.32,508.16,690.1,511.5z"/>
						
							<path style="opacity:0.15;fill:none;stroke:#000000;stroke-width:3;stroke-linecap:round;stroke-linejoin:round;stroke-miterlimit:10;" d="
							M595.955,476.946c41.334,1.109,85.909,34.459,85.909,34.459"/>
					</g>
					<g>
						
							<linearGradient id="SVGID_00000112611893048471580360000012834460429570494141_" gradientUnits="userSpaceOnUse" x1="639.8314" y1="547.3605" x2="713.3044" y2="391.9369">
							<stop  offset="0" style="stop-color:#4A8E87"/>
							<stop  offset="1" style="stop-color:#97D8B6"/>
						</linearGradient>
						<path style="fill:url(#SVGID_00000112611893048471580360000012834460429570494141_);" d="M758.09,523.57
							c-2.59,2.19-5.78,2.54-9.45,1.38c-4.09-1.31-8.77-4.48-13.89-9.1c-3.17-2.85-6.51-6.26-9.96-10.12
							c-8.62-9.6-18-21.97-27.53-35.52c-0.35-0.48-0.69-0.96-1.03-1.45c-1.18-1.68-2.36-3.39-3.54-5.1
							c-1.37-1.98-2.73-3.97-4.09-5.98c-29.09-42.85-57.87-92.01-68.96-102.49c25.54,5.97,48.26,16.88,67.45,30.51
							c4.65,3.3,9.1,6.76,13.32,10.36c1.81,1.53,3.58,3.09,5.31,4.67c2.63,2.4,5.16,4.85,7.59,7.34c1.26,1.29,2.5,2.59,3.7,3.91
							c4.19,4.53,8.05,9.16,11.56,13.87c8.18,10.87,14.56,22.09,18.97,33.01c4.09,10.13,6.49,20.02,7.02,29.17
							c0,0,3.29,1.44,6.72,4.18c0.01,0,0.01,0.01,0.01,0.01C768.23,497.76,775.78,508.6,758.09,523.57z"/>
						
							<path style="opacity:0.15;fill:none;stroke:#000000;stroke-width:3;stroke-linecap:round;stroke-linejoin:round;stroke-miterlimit:10;" d="
							M750,500c0,0-42.693-93.774-111.129-133.447"/>
					</g>
					<g>
						
							<linearGradient id="SVGID_00000021828953426438313340000011926854404879968939_" gradientUnits="userSpaceOnUse" x1="663.4529" y1="311.2478" x2="691.4798" y2="457.4266" gradientTransform="matrix(-1 0 0 1 1390.9467 0)">
							<stop  offset="0" style="stop-color:#FFC5AB"/>
							<stop  offset="1" style="stop-color:#F37270"/>
						</linearGradient>
						<path style="fill:url(#SVGID_00000021828953426438313340000011926854404879968939_);" d="M718.071,395.443
							c0.962-7.831,14.151-19.097,4.946-23.081c-9.205-3.984-11.128,22.944-11.128,22.944s-0.412-24.297-8.93-23.346
							c-8.518,0.952,0,23.758,0,23.758s-9.342-14.013-17.998-9.205c-8.655,4.809,14.151,14.563,14.151,14.563
							s-22.669-0.275-19.646,9.754c3.022,10.029,19.509-3.022,19.509-3.022s-14.151,15.662-7.419,20.333
							c6.732,4.671,12.502-5.495,13.052-18.41c2.885,18.547,7.556,24.317,14.838,18.135c7.281-6.182-8.93-20.471-8.93-20.471
							s16.074,13.464,23.081,7.144c7.007-6.32-17.036-13.448-17.036-13.448s23.63,9.083,23.218,0
							C739.366,392.009,718.071,395.443,718.071,395.443z"/>
						
							<linearGradient id="SVGID_00000133490836363474799150000000323567576673159077_" gradientUnits="userSpaceOnUse" x1="683.4315" y1="401.4236" x2="790.5927" y2="542.6565" gradientTransform="matrix(-1 0 0 1 1390.9467 0)">
							<stop  offset="0" style="stop-color:#FFC5AB"/>
							<stop  offset="1" style="stop-color:#F37270"/>
						</linearGradient>
						
							<circle style="fill:url(#SVGID_00000133490836363474799150000000323567576673159077_);" cx="707.767" cy="401.092" r="8.914"/>
					</g>
					<g>
						
							<linearGradient id="SVGID_00000168096229209360553910000008935666999873121705_" gradientUnits="userSpaceOnUse" x1="557.9899" y1="735.136" x2="586.0167" y2="881.3142" gradientTransform="matrix(-0.8505 -0.526 -0.526 0.8505 1593.6313 84.1485)">
							<stop  offset="0" style="stop-color:#FFBBE0"/>
							<stop  offset="1" style="stop-color:#A154BE"/>
						</linearGradient>
						<path style="fill:url(#SVGID_00000168096229209360553910000008935666999873121705_);" d="M680.078,482.53
							c4.937-6.154,22.08-8.799,16.346-17.029c-5.733-8.23-21.532,13.66-21.532,13.66s12.429-20.882,4.684-24.553
							c-7.745-3.671-12.496,20.206-12.496,20.206s-0.575-16.832-10.466-17.295c-9.891-0.463,4.376,19.829,4.376,19.829
							s-19.135-12.157-21.84-2.037c-2.704,10.12,18.182,7.69,18.182,7.69s-20.273,5.878-17.004,13.391
							c3.269,7.514,13.524,1.902,20.784-8.793c-7.301,17.292-6.364,24.656,3.081,23.228c9.445-1.428,3.172-22.107,3.172-22.107
							s6.59,19.906,15.873,18.216s-7.416-20.398-7.416-20.398s15.32,20.154,19.747,12.212
							C699.996,490.809,680.078,482.53,680.078,482.53z"/>
						
							<linearGradient id="SVGID_00000064350284272830764560000003495218380791212979_" gradientUnits="userSpaceOnUse" x1="667.9509" y1="477.3106" x2="671.2776" y2="516.2809">
							<stop  offset="0" style="stop-color:#FFBBE0"/>
							<stop  offset="1" style="stop-color:#A154BE"/>
						</linearGradient>
						<path style="fill:url(#SVGID_00000064350284272830764560000003495218380791212979_);" d="M660.762,477.226
							c-2.59,4.187-1.294,9.681,2.893,12.27c4.187,2.589,9.681,1.294,12.27-2.893c2.59-4.187,1.294-9.681-2.893-12.27
							C668.845,471.743,663.352,473.039,660.762,477.226z"/>
					</g>
				</g>
				<path style="opacity:0.25;" d="M758.09,523.57c-2.59,2.19-5.78,2.54-9.45,1.38c-5.05,1.21-9.67-2.25-13.89-9.1
					c-3.17-2.85-6.51-6.26-9.96-10.12c-2.24,8.68-9.8,18.81-34.69,5.77c-2.97,8.1-13.44,11.87-13.44,11.87
					c-15.77,0.17-32.19-6.55-46.6-15.08c9.71-2.28,18.79-5.75,27.27-10.1c0.64-0.33,1.28-0.67,1.92-1.01
					c2.59-1.39,5.13-2.86,7.61-4.42c0.45-0.27,0.89-0.55,1.33-0.84c0.11-0.07,0.22-0.13,0.32-0.21c0.55-0.35,1.1-0.71,1.64-1.07
					c1.95-1.29,3.86-2.63,5.73-4.02c0.01,0,0.01,0,0.01,0c0.02-0.01,0.04-0.02,0.05-0.04c0.28-0.2,0.55-0.4,0.82-0.61
					c1.37-1.02,2.71-2.06,4.03-3.13c0.49-0.38,0.96-0.77,1.44-1.16c1.59-1.31,3.16-2.64,4.69-4.01c3.23-2.86,6.33-5.84,9.31-8.91
					c0.4-0.41,0.8-0.82,1.19-1.24c0.66-0.69,1.32-1.38,1.96-2.08c5.29-5.71,10.17-11.67,14.65-17.71c1.02-1.35,2-2.71,2.97-4.08
					c4.23-5.94,8.08-11.93,11.57-17.8c3.32-5.57,6.31-11.03,8.98-16.24c4.4-8.56,7.94-16.46,10.69-23.08
					c18.19,38.2,21.67,77.94,11.91,104.32c0,0,0.45,0.49,1.13,1.36c0.01,0,0.01,0.01,0.01,0.01
					C768.23,497.76,775.78,508.6,758.09,523.57z"/>
			</g>
		</g>
	</g>
	<g>
		<g>
			<defs>
				<rect id="SVGID_00000155140708681663112340000011742668646639709365_" width="296.462" height="215.793"/>
			</defs>
			<clipPath id="SVGID_00000103238892817894693620000017447275617357542287_">
				<use xlink:href="#SVGID_00000155140708681663112340000011742668646639709365_"  style="overflow:visible;"/>
			</clipPath>
			<g style="clip-path:url(#SVGID_00000103238892817894693620000017447275617357542287_);">
				
					<linearGradient id="SVGID_00000020400128392935735270000012316305244443266220_" gradientUnits="userSpaceOnUse" x1="222.3987" y1="389.5612" x2="66.2759" y2="-100.1942">
					<stop  offset="0" style="stop-color:#FFD4CF"/>
					<stop  offset="1" style="stop-color:#FF5470"/>
				</linearGradient>
				<path style="fill:url(#SVGID_00000020400128392935735270000012316305244443266220_);" d="M285.33-21.17
					c-1.71,14.6-3.94,28.67-6.65,42.15c-0.62,3.05-1.26,6.07-1.93,9.06c0,0.01,0,0.01,0,0.02c-2.01,9.05-4.25,17.82-6.72,26.3
					C232.47,185.7,143.37,246.2,26.39,183.35c-5.43-2.92-10.91-6.1-16.46-9.55c-17.83-11.11-36.24-25-55.18-41.88
					c-3.91-3.48-7.84-7.1-11.8-10.84l0.08-0.53l1.38-9.07C151.44,129.89,264.17-12.13,264.17-12.13l2.32-0.99L285.33-21.17z"/>
				
					<linearGradient id="SVGID_00000171711164065251229390000004500988123548075199_" gradientUnits="userSpaceOnUse" x1="320.3811" y1="473.5084" x2="13.8459" y2="-6.9669">
					<stop  offset="0" style="stop-color:#FFD4CF"/>
					<stop  offset="1" style="stop-color:#FF5470"/>
				</linearGradient>
				<path style="fill:url(#SVGID_00000171711164065251229390000004500988123548075199_);" d="M212.36,65.02
					c0,0-10.93,44.18-31.37,75.55c-20.44,31.38-65.11,6.77-92.2,4.82s-63.37,4.71-96.47-2.41c57.03,35.15,147.32,32.22,130.21,36.06
					c-13.24,2.97-52.39,15.95-112.6-5.24c-21.51-13.4-43.88-30.86-66.98-52.72l0.08-0.53C-4.64,143.19,144.1,80.84,157.7,91.63
					c-19.01,18.54-117.86,40.92-117.86,40.92s42.3,8.89,81.27-3.89C160.08,115.87,212.36,65.02,212.36,65.02z"/>
				
					<linearGradient id="SVGID_00000168798206541799163010000005130355319481736121_" gradientUnits="userSpaceOnUse" x1="244.9057" y1="271.3317" x2="145.1036" y2="85.2717">
					<stop  offset="0" style="stop-color:#FFD4CF"/>
					<stop  offset="1" style="stop-color:#FF5470"/>
				</linearGradient>
				<path style="fill:url(#SVGID_00000168798206541799163010000005130355319481736121_);" d="M175.563,96.578
					c-11.207,14.541-45.187,28.779-45.187,28.779s33.03,16.742,40.159,7.193c7.129-9.549,13.34-42.537,13.34-42.537L175.563,96.578z
					"/>
				
					<linearGradient id="SVGID_00000020389024837766376930000012743240403134557371_" gradientUnits="userSpaceOnUse" x1="53.3882" y1="214.1218" x2="22.7346" y2="123.9434">
					<stop  offset="0" style="stop-color:#FFD4CF"/>
					<stop  offset="1" style="stop-color:#FF5470"/>
				</linearGradient>
				<path style="fill:url(#SVGID_00000020389024837766376930000012743240403134557371_);" d="M-56.51,117.528
					c64.985,14.74,156.74-19.98,154.526-15.63c-2.214,4.35-43.56,27.067-60.669,26.758c-17.109-0.309-95.881,0-95.881,0"/>
				
					<linearGradient id="SVGID_00000093170839219875638810000011970816041611503543_" gradientUnits="userSpaceOnUse" x1="422.4449" y1="375.7264" x2="207.1578" y2="-66.253">
					<stop  offset="0" style="stop-color:#FFD4CF"/>
					<stop  offset="1" style="stop-color:#FF5470"/>
				</linearGradient>
				<path style="fill:url(#SVGID_00000093170839219875638810000011970816041611503543_);" d="M271.168-38.109
					c-16.753,46.693-67.01,99.802-67.366,99.445c-0.357-0.356,36.356-13.901,47.406-33.148
					c11.049-19.248,16.396-29.941,16.396-29.941s-10.337,37.426-31.723,61.663c-21.386,24.238,19.96-6.416,26.376-26.02
					c6.416-19.604,23.073-74.139,23.073-74.139"/>
				
					<linearGradient id="SVGID_00000183238823855320448250000005333003588435962029_" gradientUnits="userSpaceOnUse" x1="269.5726" y1="181.5353" x2="122.0086" y2="39.3178">
					<stop  offset="0" style="stop-color:#FFD4CF"/>
					<stop  offset="1" style="stop-color:#FF5470"/>
				</linearGradient>
				<path style="fill:url(#SVGID_00000183238823855320448250000005333003588435962029_);" d="M239.921,68.844
					c-4.277,28.968-20.18,78.547-75.089,95.86c45.148-11.288,53.113-27.357,55.071-32.154c1.959-4.797,16.216-9.312,17.166-22.619
					S239.921,68.844,239.921,68.844z"/>
				
					<linearGradient id="SVGID_00000030456705789272152850000012492945024061359778_" gradientUnits="userSpaceOnUse" x1="187.0793" y1="328.3966" x2="64.1087" y2="-331.3653">
					<stop  offset="0" style="stop-color:#FFD4CF"/>
					<stop  offset="1" style="stop-color:#FF5470"/>
				</linearGradient>
				<path style="fill:url(#SVGID_00000030456705789272152850000012492945024061359778_);" d="M207.13,160.2
					c8.53-12.3,45.85-53.68,62.9-103.84C232.47,185.7,143.37,246.2,26.39,183.35c64.22,26.71,117.56,18.73,138.44,0.39
					C189.07,162.45,197.15,174.58,207.13,160.2z"/>
			</g>
		</g>
		<g>
			<defs>
				<rect id="SVGID_00000125582441891059778810000017709317020601180294_" x="453.538" width="296.462" height="215.793"/>
			</defs>
			<clipPath id="SVGID_00000088832945441829207290000005721139517604025276_">
				<use xlink:href="#SVGID_00000125582441891059778810000017709317020601180294_"  style="overflow:visible;"/>
			</clipPath>
			<g style="clip-path:url(#SVGID_00000088832945441829207290000005721139517604025276_);">
				
					<linearGradient id="SVGID_00000027581493032178991110000008927140736035178429_" gradientUnits="userSpaceOnUse" x1="747.8723" y1="389.5612" x2="591.7495" y2="-100.1942" gradientTransform="matrix(-1 0 0 1 1277.7426 0)">
					<stop  offset="0" style="stop-color:#9895D4"/>
					<stop  offset="1" style="stop-color:#402C72"/>
				</linearGradient>
				<path style="fill:url(#SVGID_00000027581493032178991110000008927140736035178429_);" d="M466.939-21.17
					c1.71,14.6,3.94,28.67,6.65,42.15c0.62,3.05,1.26,6.07,1.93,9.06c0,0.01,0,0.01,0,0.02c2.01,9.05,4.25,17.82,6.72,26.3
					c37.56,129.34,126.66,189.84,243.64,126.99c5.43-2.92,10.91-6.1,16.46-9.55c17.83-11.11,36.24-25,55.18-41.88
					c3.91-3.48,7.84-7.1,11.8-10.84l-0.08-0.53l-1.38-9.07c-207.03,18.41-319.76-123.61-319.76-123.61l-2.32-0.99L466.939-21.17z"/>
				
					<linearGradient id="SVGID_00000157996204221668303740000001248746815019188921_" gradientUnits="userSpaceOnUse" x1="845.8547" y1="473.5083" x2="539.3196" y2="-6.9668" gradientTransform="matrix(-1 0 0 1 1277.7426 0)">
					<stop  offset="0" style="stop-color:#9895D4"/>
					<stop  offset="1" style="stop-color:#402C72"/>
				</linearGradient>
				<path style="fill:url(#SVGID_00000157996204221668303740000001248746815019188921_);" d="M539.909,65.02
					c0,0,10.93,44.18,31.37,75.55c20.44,31.38,65.11,6.77,92.2,4.82c27.09-1.95,63.37,4.71,96.47-2.41
					c-57.03,35.15-147.32,32.22-130.21,36.06c13.24,2.97,52.39,15.95,112.6-5.24c21.51-13.4,43.88-30.86,66.98-52.72l-0.08-0.53
					c-52.33,22.64-201.07-39.71-214.67-28.92c19.01,18.54,117.86,40.92,117.86,40.92s-42.3,8.89-81.27-3.89
					C592.189,115.87,539.909,65.02,539.909,65.02z"/>
				
					<linearGradient id="SVGID_00000127037168172046143610000004371949595088816256_" gradientUnits="userSpaceOnUse" x1="770.3794" y1="271.3317" x2="670.5773" y2="85.2716" gradientTransform="matrix(-1 0 0 1 1277.7426 0)">
					<stop  offset="0" style="stop-color:#9895D4"/>
					<stop  offset="1" style="stop-color:#402C72"/>
				</linearGradient>
				<path style="fill:url(#SVGID_00000127037168172046143610000004371949595088816256_);" d="M576.706,96.578
					c11.207,14.541,45.187,28.779,45.187,28.779s-33.03,16.742-40.158,7.193c-7.129-9.549-13.341-42.537-13.341-42.537
					L576.706,96.578z"/>
				
					<linearGradient id="SVGID_00000027593968142351242760000000035986600247608474_" gradientUnits="userSpaceOnUse" x1="578.8619" y1="214.1218" x2="548.2083" y2="123.9434" gradientTransform="matrix(-1 0 0 1 1277.7426 0)">
					<stop  offset="0" style="stop-color:#9895D4"/>
					<stop  offset="1" style="stop-color:#402C72"/>
				</linearGradient>
				<path style="fill:url(#SVGID_00000027593968142351242760000000035986600247608474_);" d="M808.779,117.528
					c-64.985,14.74-156.74-19.98-154.526-15.63c2.214,4.35,43.56,27.067,60.669,26.758c17.109-0.309,95.881,0,95.881,0"/>
				
					<linearGradient id="SVGID_00000080910297507092075490000004485539035344074382_" gradientUnits="userSpaceOnUse" x1="947.9185" y1="375.7265" x2="732.6314" y2="-66.253" gradientTransform="matrix(-1 0 0 1 1277.7426 0)">
					<stop  offset="0" style="stop-color:#9895D4"/>
					<stop  offset="1" style="stop-color:#402C72"/>
				</linearGradient>
				<path style="fill:url(#SVGID_00000080910297507092075490000004485539035344074382_);" d="M481.101-38.109
					c16.752,46.693,67.01,99.802,67.366,99.445c0.356-0.356-36.356-13.901-47.406-33.148c-11.05-19.248-16.396-29.941-16.396-29.941
					s10.337,37.426,31.723,61.663c21.386,24.238-19.96-6.416-26.376-26.02c-6.416-19.604-23.072-74.139-23.072-74.139"/>
				
					<linearGradient id="SVGID_00000096745761945397252310000001064603530580484520_" gradientUnits="userSpaceOnUse" x1="795.0463" y1="181.5354" x2="647.4821" y2="39.3177" gradientTransform="matrix(-1 0 0 1 1277.7426 0)">
					<stop  offset="0" style="stop-color:#9895D4"/>
					<stop  offset="1" style="stop-color:#402C72"/>
				</linearGradient>
				<path style="fill:url(#SVGID_00000096745761945397252310000001064603530580484520_);" d="M512.348,68.844
					c4.277,28.968,20.18,78.547,75.089,95.86c-45.148-11.288-53.113-27.357-55.071-32.154c-1.959-4.797-16.216-9.312-17.167-22.619
					S512.348,68.844,512.348,68.844z"/>
				
					<linearGradient id="SVGID_00000078752197759524625800000016664272094402698387_" gradientUnits="userSpaceOnUse" x1="712.553" y1="328.3966" x2="589.5824" y2="-331.3653" gradientTransform="matrix(-1 0 0 1 1277.7426 0)">
					<stop  offset="0" style="stop-color:#9895D4"/>
					<stop  offset="1" style="stop-color:#402C72"/>
				</linearGradient>
				<path style="fill:url(#SVGID_00000078752197759524625800000016664272094402698387_);" d="M545.139,160.2
					c-8.53-12.3-45.85-53.68-62.9-103.84c37.56,129.34,126.66,189.84,243.64,126.99c-64.22,26.71-117.56,18.73-138.44,0.39
					C563.199,162.45,555.119,174.58,545.139,160.2z"/>
			</g>
		</g>
	</g>
	<g>
		
			<linearGradient id="SVGID_00000155856995096893941850000004501470914854222516_" gradientUnits="userSpaceOnUse" x1="294.1908" y1="291.0089" x2="347.3712" y2="97.8388">
			<stop  offset="0" style="stop-color:#762C4F"/>
			<stop  offset="1" style="stop-color:#8E4873"/>
		</linearGradient>
		<path style="fill:url(#SVGID_00000155856995096893941850000004501470914854222516_);" d="M346.955,286.929
			c-31.76-4.772-81.643,29.796-112.921,6.725c-18.475-13.625-16.5-29.697-7.339-44.442c6.341-10.225,16.127-19.813,24.936-27.503
			c21.502-18.771,26.198-44.19,44.574-72.823c18.387-28.644,48.885-12.814,54.305-3.5c32.034,0.219,22.314,39.264,17.74,73.69
			c-2.128,15.951-3.138,30.904,1.602,40.558C384.848,290.132,378.715,291.701,346.955,286.929z"/>
		<path style="opacity:0.25;" d="M346.955,286.929c-31.76-4.772-81.643,29.796-112.921,6.725
			c-18.475-13.625-16.5-29.697-7.339-44.442c3.434-1.371,8.513-0.428,18.683,0.351c24.234,1.865,13.812-23.905,30.762-24.574
			c16.939-0.68,6.89-30.893,22.215-32.725c15.315-1.843,59.9,2.589,59.9,3.895c0,1.305,0,1.305,0,1.305s4.202,9.062,9.994,21.612
			c-2.128,15.951-3.138,30.904,1.602,40.558C384.848,290.132,378.715,291.701,346.955,286.929z"/>
		
			<linearGradient id="SVGID_00000104693520241856157930000002635084444746357912_" gradientUnits="userSpaceOnUse" x1="274.0956" y1="275.7561" x2="488.3815" y2="971.7931">
			<stop  offset="0" style="stop-color:#FFD6E8"/>
			<stop  offset="1" style="stop-color:#BF5270"/>
		</linearGradient>
		<path style="fill:url(#SVGID_00000104693520241856157930000002635084444746357912_);" d="M397.168,500H255.153
			c0,0,12.901-36.642,27.196-62.84c14.295-26.198,23.247-62.949,20.12-86.679c-2.567-19.418-15.085-48.622-18.968-69.938
			c-0.856-4.728-1.294-9.062-1.108-12.825c1.042-20.723,18.244-27.24,27.108-34.612l17.794,3.456c0,0,7.087,1.678,14.964,7.822
			c3.346,2.6,6.824,6.001,9.961,10.422c1.58,2.205,3.061,4.663,4.399,7.394c0.494,0.998,0.954,1.964,1.371,2.874
			c5.145,11.157,5.529,16.423,4.454,20.724c-0.022,0.066-0.033,0.132-0.055,0.186c-0.088,0.318-0.176,0.636-0.274,0.943
			c-0.735,2.37-1.865,4.575-2.754,7.504c-0.998,3.258-1.24,6.922-0.395,12.068c1.349,8.195,5.474,20.142,13.812,40.174
			c-1.437,6.165-2.611,11.311-2.797,13.713c-0.505,6.56-0.033,8.48,11.08,9.775l3.598,29.017c0.022,0.132,0.033,0.263,0.055,0.395
			l2.666,21.503L397.168,500z"/>
		
			<linearGradient id="SVGID_00000096761242804957850000000018020258044506797989_" gradientUnits="userSpaceOnUse" x1="417.3839" y1="247.9266" x2="140.5332" y2="759.3964">
			<stop  offset="0" style="stop-color:#FFD6E8"/>
			<stop  offset="1" style="stop-color:#BF5270"/>
		</linearGradient>
		<path style="fill:url(#SVGID_00000096761242804957850000000018020258044506797989_);" d="M397.168,500H255.153
			c0,0,12.901-36.642,27.196-62.84c14.295-26.198,23.247-62.949,20.12-86.679c-0.735-5.551-2.282-11.903-4.213-18.65
			c-4.805-16.829-11.98-36.071-14.756-51.288l4.63-4.355c0,0,31.146,40.142,33.746,44.837l40.811,14.371
			c-27.898,7.142-42.237,7.142-46.538,9.095c-4.3,1.953-4.827,8.601,0,35.194c4.827,26.582-12.901,72.209-8.206,94.369
			c4.685,22.15,12.452,21.371,18.222,4.948c5.76-16.423,9.226-61.754,16.094-69.071c6.868-7.306-4.805,45.868,14.196,70.64
			c19.001,24.761,30.586-26.439,30.926-59.494L397.168,500z"/>
		
			<linearGradient id="SVGID_00000156563944929189947380000000572284803450903487_" gradientUnits="userSpaceOnUse" x1="299.7626" y1="320.736" x2="534.3818" y2="342.1124">
			<stop  offset="0" style="stop-color:#FFD6E8"/>
			<stop  offset="1" style="stop-color:#BF5270"/>
		</linearGradient>
		<path style="fill:url(#SVGID_00000156563944929189947380000000572284803450903487_);" d="M366.286,355.967
			c2.567-20.065,0.307-27.383-14.393-34.261c-14.701-6.868-22.841-3.412-23.62-11.179c-0.779-7.767,20.329-0.965,25.814-12.967
			c4.926-10.795,6.264-23.433-1.865-42.753c1.58,2.205,3.061,4.663,4.399,7.394c0.494,0.998,0.954,1.964,1.371,2.874
			c8.535,18.486,3.971,20.8,1.371,29.357c-2.578,8.447-0.143,19.637,13.417,52.242c-1.437,6.165-2.611,11.311-2.797,13.713
			c-0.505,6.56-0.033,8.48,11.08,9.775l3.598,29.017C380.833,369.625,363.74,375.944,366.286,355.967z"/>
		
			<linearGradient id="SVGID_00000045607805446458804760000007747417031613109129_" gradientUnits="userSpaceOnUse" x1="351.0191" y1="381.2194" x2="509.8933" y2="578.2881">
			<stop  offset="0" style="stop-color:#EFDEFF"/>
			<stop  offset="1" style="stop-color:#5E4870"/>
		</linearGradient>
		<path style="fill:url(#SVGID_00000045607805446458804760000007747417031613109129_);" d="M404.902,500h-7.734l-16.105-129.837
			c-11.113-1.294-11.585-3.214-11.08-9.775c0.186-2.402,1.36-7.548,2.797-13.713c0.889,2.128,1.821,4.355,2.808,6.681
			c1.799,4.235,3.555,9.369,5.277,15.15c0.165,0.548,0.329,1.119,0.494,1.69C394.688,416.283,404.902,500,404.902,500z"/>
		
			<linearGradient id="SVGID_00000069387530884112162400000013405727568362047376_" gradientUnits="userSpaceOnUse" x1="319.8429" y1="297.233" x2="324.0139" y2="172.8887">
			<stop  offset="0" style="stop-color:#FFCFDA"/>
			<stop  offset="1" style="stop-color:#F4A2B8"/>
		</linearGradient>
		<path style="fill:url(#SVGID_00000069387530884112162400000013405727568362047376_);" d="M332.068,252.689
			c2.754,8.085,5.814,20.372-0.867,20.438c-9.972,0.099-23.751-35.095-23.751-35.095s0.362-1.481,0.779-3.938
			c0.406-2.293,0.878-5.441,1.174-9.029c0.274-3.379,0.406-7.164,0.197-10.982l15.348,1.119l11.344,0.834
			c-0.702,0.68-1.339,1.711-1.92,3.006c-1.799,4.004-3.017,10.455-3.785,16.006c-0.812,5.847-1.141,10.707-1.141,10.707
			s1.273,2.951,2.611,6.911C332.068,252.667,332.068,252.678,332.068,252.689z"/>
		<path style="opacity:0.25;" d="M334.372,219.042c-1.799,4.004-3.017,10.455-3.785,16.006c-5.639,2.403-12.759-0.165-21.184-9.983
			c0.274-3.379,0.406-7.164,0.197-10.982l15.348,1.119C327.866,216.015,331.553,217.276,334.372,219.042z"/>
		
			<linearGradient id="SVGID_00000032616396471757471220000012018903264854367123_" gradientUnits="userSpaceOnUse" x1="296.8678" y1="215.8229" x2="306.0571" y2="130.9692">
			<stop  offset="0" style="stop-color:#FFCFDA"/>
			<stop  offset="1" style="stop-color:#F4A2B8"/>
		</linearGradient>
		<path style="fill:url(#SVGID_00000032616396471757471220000012018903264854367123_);" d="M300.785,191.986
			c-2.72-3.617-9.595-0.978-7.51,6.973c2.086,7.951,9.189,10.819,11.535,0.391"/>
		<g>
			
				<linearGradient id="SVGID_00000093899234204979291610000012058017903559905185_" gradientUnits="userSpaceOnUse" x1="396.3585" y1="476.7404" x2="367.6828" y2="656.6152">
				<stop  offset="0" style="stop-color:#402C4F"/>
				<stop  offset="1" style="stop-color:#5E4870"/>
			</linearGradient>
			<polygon style="fill:url(#SVGID_00000093899234204979291610000012058017903559905185_);" points="430.189,500 397.168,500 
				381.063,370.163 380.865,368.506 380.284,363.844 381.14,345.72 381.732,333.016 399.548,326.895 406.46,324.514 
				408.084,323.954 408.928,323.669 419.965,319.873 420.415,327.75 420.689,332.643 422.093,357.36 422.356,362.012 
				422.697,368.067 			"/>
			<path style="opacity:0.15;" d="M430.189,500h-22.161c3.576-33.603,3.335-106.536,5.485-146.644l9.182,14.712L430.189,500z"/>
			
				<linearGradient id="SVGID_00000070821638880473640910000009256564098956418207_" gradientUnits="userSpaceOnUse" x1="401.2048" y1="321.7792" x2="576.3845" y2="679.9587">
				<stop  offset="0" style="stop-color:#402C4F"/>
				<stop  offset="1" style="stop-color:#5E4870"/>
			</linearGradient>
			<polygon style="fill:url(#SVGID_00000070821638880473640910000009256564098956418207_);" points="466.908,329.714 
				465.142,370.36 459.503,500 426.547,500 411.781,348.134 410.475,334.717 414.754,333.016 420.689,332.643 			"/>
			<path style="opacity:0.15;" d="M466.908,329.714l-1.766,40.646c-8.875-7.328-24.267-4.158-30.805-4.366
				c-4.63-0.154-8.645-1.316-11.98-3.982c-2.501-1.986-4.63-4.805-6.363-8.656c-0.987-2.205-2.402-3.949-4.213-5.222
				c-5.54-3.917-14.92-3.478-27.986,1.042l-2.655-3.456l0.592-12.704l38.233-13.143l0.724,12.77L466.908,329.714z"/>
			<g>
				
					<linearGradient id="SVGID_00000069364781599769572380000002730324895046926523_" gradientUnits="userSpaceOnUse" x1="407.025" y1="192.7682" x2="407.025" y2="322.9787">
					<stop  offset="0" style="stop-color:#EFDEFF"/>
					<stop  offset="1" style="stop-color:#5E4870"/>
				</linearGradient>
				<path style="fill:url(#SVGID_00000069364781599769572380000002730324895046926523_);" d="M441.862,202.543l-17.619,45.364
					l-8.382,9.665l-0.011,0.011l-12.496,14.404l-8.612,6.451l-15.677-14.887l-2.896-27.185l-3.982-11.53l0.406-1.744l6.473-27.778
					c11.19-5.474,9.676-9.391,55.303-10.367l2.841,6.681L441.862,202.543z"/>
				<path style="opacity:0.25;" d="M437.211,191.627c-10.279-0.351-15.875,20.043-15.875,20.043s-4.816,3.258-6.385,12.254
					c-1.569,8.985,0.911,33.647,0.911,33.647l-0.011,0.011l-12.858,10.137l4.651-51.277c0,0-4.289-5.167-11.333-2.819
					c-7.043,2.348-3.785,7.175-5.672,0.889c-1.887-6.275,0.461-17.838-2.392-17.312c-2.841,0.538-12.923,10.554-12.265,30.498
					l-3.39-4.608l6.473-27.778c11.19-5.474,9.676-9.391,55.303-10.367L437.211,191.627z"/>
				
					<linearGradient id="SVGID_00000154419790795020499810000015730834618121651597_" gradientUnits="userSpaceOnUse" x1="401.8635" y1="171.2341" x2="403.8187" y2="281.8958">
					<stop  offset="0" style="stop-color:#402C4F"/>
					<stop  offset="1" style="stop-color:#5E4870"/>
				</linearGradient>
				<path style="fill:url(#SVGID_00000154419790795020499810000015730834618121651597_);" d="M394.878,205.151l4.171,3.91
					c0,0-6.647,51.486-8.472,59.176c-1.825,7.69,2.477,14.338,2.477,14.338l6.55,3.629l6.876-11.971c0,0,2.216-47.445,2.998-57.221
					c0.782-9.776,6.387-18.77,6.387-18.77l-10.766,1.318l-5.495-1.318L394.878,205.151z"/>
				
					<linearGradient id="SVGID_00000030456120581690792110000004486276063476964768_" gradientUnits="userSpaceOnUse" x1="343.4419" y1="355.359" x2="554.0186" y2="3.5821">
					<stop  offset="0" style="stop-color:#402C4F"/>
					<stop  offset="1" style="stop-color:#5E4870"/>
				</linearGradient>
				<path style="fill:url(#SVGID_00000030456120581690792110000004486276063476964768_);" d="M413.514,330.153
					c0,0-0.241,1.371-0.658,3.62v0.033c-0.066,0.373-0.143,0.779-0.22,1.207c-0.384,2.029-0.867,4.553-1.415,7.35
					c-0.318,1.547-0.647,3.181-0.998,4.849c-2.37,11.377-5.529,24.508-7.778,25.957c-1.459,0.944-2.907,0.998-4.739,0.625
					c-3.225-0.669-7.646-2.666-15.469-3.5c-0.296-0.033-0.592-0.066-0.878-0.099c-0.099-0.011-0.198-0.022-0.296-0.033
					c-11.113-1.294-11.585-3.214-11.08-9.775c0.186-2.402,1.36-7.548,2.797-13.713c2.633-11.212,6.165-25.825,6.33-33.724
					c0.252-12.068-12.419-54.206-12.814-55.5c-0.011-0.011-0.011-0.022-0.011-0.033l-8.294,7.658
					c-0.417-0.911-0.878-1.876-1.371-2.874c-4.026-8.217-9.347-13.922-14.361-17.816c0.198-0.45,0.406-0.954,0.647-1.492
					c3.083-7.131,9.512-21.064,15.567-28.249c2.403-2.863,5.145-5.683,7.811-8.25c0-0.011,0.011-0.011,0.011-0.011
					c6.582-6.297,12.77-11.069,12.77-11.069s-0.998,6.604-1.02,16.313c-0.033,9.709,0.922,22.523,4.838,34.974
					c0.154,0.483,0.307,0.955,0.461,1.426c0.241,0.691,0.472,1.371,0.713,2.029c0.274,0.757,0.559,1.503,0.856,2.216
					c0.143,0.351,0.285,0.702,0.428,1.042c0.274,0.647,0.549,1.273,0.823,1.887c0.022,0.033,0.033,0.077,0.055,0.11
					c0.154,0.318,0.296,0.636,0.45,0.955c0.603,1.251,1.218,2.424,1.843,3.533c0.285,0.483,0.56,0.965,0.834,1.426
					c0.033,0.066,0.066,0.121,0.11,0.176c0.154,0.252,0.318,0.505,0.472,0.757c0.011,0.022,0.022,0.033,0.022,0.055
					c0.461,0.713,0.922,1.393,1.382,2.04v0.011c0.165,0.219,0.318,0.428,0.461,0.636c0.285,0.384,0.559,0.746,0.834,1.097
					c1.569,1.997,3.105,3.609,4.542,4.904c0.735,0.669,1.437,1.251,2.106,1.755c0.57,0.45,1.119,0.834,1.624,1.163
					c0.011,0,0.011,0,0.011,0c2.414,1.613,4.004,2.107,4.004,2.107l0.077,0.91l2.677,31.793l0.581,6.922l0.428,5.145l0.252,2.973
					l0.252,2.962l0.165,1.953l0.757,0.285L413.514,330.153z"/>
				<path style="opacity:0.15;" d="M413.514,330.153c0,0-7.032,40.405-11.069,43.016c-1.459,0.944-2.907,0.998-4.739,0.625
					c10.685-33.833-6.22-81.029-7.581-84.046c-1.492-3.324,5.189-16.785-0.176-27.547c2.457,3.851,4.97,6.67,7.219,8.7
					c4.366,3.971,7.745,5.025,7.745,5.025l4.432,52.659L413.514,330.153z"/>
				
					<linearGradient id="SVGID_00000019655192069442767610000010496063317491787681_" gradientUnits="userSpaceOnUse" x1="461.343" y1="365.8928" x2="411.6809" y2="211.4319">
					<stop  offset="0" style="stop-color:#402C4F"/>
					<stop  offset="1" style="stop-color:#5E4870"/>
				</linearGradient>
				<path style="fill:url(#SVGID_00000019655192069442767610000010496063317491787681_);" d="M463.255,355.967
					c-2.797,0.801-5.968,1.635-9.38,2.6c-13.867,3.906-21.327,17.728-25.496,11.991c-4.169-5.738-34.799-82.378-34.799-82.378
					s0.274-4.575,6.023-16.193c3.149-6.352,7.943-14.81,15.216-25.781c20.592-31.014,19.55-61.26,19.55-61.26l12.912,4.169
					l0.669,6.132l3.061,28.041l0.823,7.537c0,0,0,5.387,0.263,13.198c0.307,9.062,0.965,21.426,2.381,32.462
					c0.186,1.404,0.373,2.786,0.581,4.136c1.086,7.153,3.313,16.357,5.902,25.638c5.046,18.156,11.486,36.609,13.56,40.58
					C476.88,351.359,471.823,353.498,463.255,355.967z"/>
				
					<linearGradient id="SVGID_00000147908875918119209990000012967714911182087843_" gradientUnits="userSpaceOnUse" x1="467.9685" y1="289.8024" x2="283.6625" y2="239.2291">
					<stop  offset="0" style="stop-color:#402C4F"/>
					<stop  offset="1" style="stop-color:#5E4870"/>
				</linearGradient>
				<path style="fill:url(#SVGID_00000147908875918119209990000012967714911182087843_);" d="M463.255,355.967
					c5.891-13.066,1.404-25.869-10.894-33.373c-16.84-10.29-34.898-19.462-34.898-19.462s27.854-13.384,28.644-34.239
					c0.779-20.855-7.822-40.931,0.351-52.451l4.553,6.846l0.823,7.537c0,0,0,28.677,3.225,49.796
					c3.214,21.118,16.335,60.218,19.462,66.219C476.88,351.359,471.823,353.498,463.255,355.967z"/>
				
					<linearGradient id="SVGID_00000176033700007787270520000001662139463959879056_" gradientUnits="userSpaceOnUse" x1="407.1862" y1="98.3985" x2="407.1862" y2="272.0184">
					<stop  offset="0" style="stop-color:#EFDEFF"/>
					<stop  offset="1" style="stop-color:#5E4870"/>
				</linearGradient>
				<path style="fill:url(#SVGID_00000176033700007787270520000001662139463959879056_);" d="M426.481,190.343v0.011
					c0,0.395-0.011,0.801-0.033,1.229c-0.428,9.391-9.391,23.367-10.038,22.062c-0.636-1.305-7.855-14.075-11.695-14.13
					c-3.851-0.055-10.115,13.417-14.635,15.293c-3.543-7.087-1.865-17.323-1.262-22.281c0.077-0.713,0.143-1.316,0.165-1.788
					c0.165-3.763,1.251-3.785,6.615-7.723l20.372-3.412C422.115,180.865,426.481,182.072,426.481,190.343z"/>
				<path style="opacity:0.25;" d="M426.481,190.343c-1.624-3.225-5.189-0.592-9.786,4.037c-5.332,5.376-12.616,5.529-17.597,2.293
					c-4.981-3.225-4.443-7.175-5.233-7.559c-0.56-0.274-3.171,0.812-5.047,3.412c0.077-0.713,0.143-1.316,0.165-1.788
					c0.165-3.763,1.251-3.785,6.615-7.723l20.372-3.412C422.115,180.865,426.481,182.072,426.481,190.343z"/>
				
					<linearGradient id="SVGID_00000121255522640109944220000016737093338998762882_" gradientUnits="userSpaceOnUse" x1="397.1971" y1="160.3328" x2="402.4111" y2="84.9903">
					<stop  offset="0" style="stop-color:#402C4F"/>
					<stop  offset="1" style="stop-color:#5E4870"/>
				</linearGradient>
				<path style="fill:url(#SVGID_00000121255522640109944220000016737093338998762882_);" d="M449.75,125.079
					c-1.207,5.924-4.092,11.717-8.206,14.514c-10.521,7.164-9.457,30.63-22.742,23.916l-56.246-27.569
					c-4.695-3.587-11.014-13.965-11.936-25.342c-0.922-11.354,3.565-23.707,20.471-31.233c33.822-15.052,72.34,8.02,70.387,27.964
					C449.465,106.254,451.659,115.831,449.75,125.079z"/>
				<path style="opacity:0.25;" d="M449.75,125.079c-1.207,5.924-4.092,11.717-8.206,14.514
					c-10.521,7.164-9.457,30.63-22.742,23.916l-56.246-27.569c-4.695-3.587-11.014-13.965-11.936-25.342
					c14.766,5.036,28.94-8.403,42.303-0.472c16.028,9.522,52.9-1.174,55.972,11.607C449.18,122.929,449.476,124.048,449.75,125.079z
					"/>
				
					<linearGradient id="SVGID_00000155825422526880088450000013036764691733587852_" gradientUnits="userSpaceOnUse" x1="404.7278" y1="242.2053" x2="410.9839" y2="94.1448">
					<stop  offset="0" style="stop-color:#FFCFDA"/>
					<stop  offset="1" style="stop-color:#F4A2B8"/>
				</linearGradient>
				<path style="fill:url(#SVGID_00000155825422526880088450000013036764691733587852_);" d="M421.336,182.861
					c-0.384,5.343-6.385,14.075-13.165,16.028c-6.78,1.964-10.685-5.343-10.685-5.343s-0.099-1.459-0.318-3.653
					c-0.219-2.194-0.559-5.123-1.053-8.041c-0.603-3.653-1.437-7.296-2.534-9.544l26.977-10.17c0,0-0.241,4.531,0.208,12.682
					c0.099,2.03,0.252,4.29,0.461,6.758C421.259,181.995,421.292,182.423,421.336,182.861z"/>
				<path style="opacity:0.25;" d="M420.766,174.82c-6.253,9.314-16.247,10.718-24.651,7.032c-0.603-3.653-1.437-7.296-2.534-9.544
					l26.977-10.17C420.557,162.138,420.316,166.669,420.766,174.82z"/>
				
					<linearGradient id="SVGID_00000129184155714919657730000000698701356199143561_" gradientUnits="userSpaceOnUse" x1="388.9478" y1="163.9713" x2="436.9881" y2="48.9412">
					<stop  offset="0" style="stop-color:#FFCFDA"/>
					<stop  offset="1" style="stop-color:#F4A2B8"/>
				</linearGradient>
				<path style="fill:url(#SVGID_00000129184155714919657730000000698701356199143561_);" d="M441.017,144.409
					c-6.769,7.306-9.994,2.348-9.994,2.348s-1.481,10.751-8.864,18.968c-4.246,4.728-10.433,8.612-19.44,9.128
					c-24.618,1.404-28.403-6.747-34.645-16.215c-2.161-3.28-3.796-8.206-5.003-13.253c-1.185-4.948-1.975-10.016-2.457-13.746
					c-0.45-3.434-0.636-5.727-0.636-5.727c9.226,4.114,61.721,2.863,68.27-3.16c0.23,0.691,0.263,1.788,0.208,3.061
					c-0.197,4.586-1.558,11.541,0.702,10.894c2.896-0.834,5.485-11.256,10.488-11.124
					C444.649,125.715,447.786,137.114,441.017,144.409z"/>
				
					<linearGradient id="SVGID_00000142175664549132458260000008822320861541917860_" gradientUnits="userSpaceOnUse" x1="402.4616" y1="326.8537" x2="441.563" y2="299.4827">
					<stop  offset="0" style="stop-color:#FFCFDA"/>
					<stop  offset="1" style="stop-color:#F4A2B8"/>
				</linearGradient>
				<path style="fill:url(#SVGID_00000142175664549132458260000008822320861541917860_);" d="M440.107,312.819
					c0,0-10.082,2.874-14.876,7.054c-1.141,0.998-1.986,2.073-2.326,3.203c-1.766,5.869-8.996,12.221-16.719,12.32
					c-7.723,0.099-12.024-3.807-7.23-3.807c4.783,0,13.68-16.818,11.333-16.818s-4.981,4.004-7.23,4.3
					c-2.249,0.296-1.667-1.953,0.483-6.198c1.701-3.346,9.643-8.469,16.423-10.652c1.788-0.581,3.5-0.954,4.992-1.042
					L440.107,312.819z"/>
				
					<linearGradient id="SVGID_00000111191652378839680680000016241090714043701641_" gradientUnits="userSpaceOnUse" x1="385.4615" y1="325.5111" x2="422.6096" y2="311.0429">
					<stop  offset="0" style="stop-color:#FFCFDA"/>
					<stop  offset="1" style="stop-color:#F4A2B8"/>
				</linearGradient>
				<path style="fill:url(#SVGID_00000111191652378839680680000016241090714043701641_);" d="M425.231,319.873
					c0.834-6.977-1.009-12.912-5.266-17.652c1.788-0.581,3.5-0.954,4.992-1.042l15.15,11.64
					C440.107,312.819,430.025,315.694,425.231,319.873z"/>
				
					<linearGradient id="SVGID_00000128453936163157856500000002745529842563803835_" gradientUnits="userSpaceOnUse" x1="479.8513" y1="359.9348" x2="430.1911" y2="205.48">
					<stop  offset="0" style="stop-color:#402C4F"/>
					<stop  offset="1" style="stop-color:#5E4870"/>
				</linearGradient>
				<path style="fill:url(#SVGID_00000128453936163157856500000002745529842563803835_);" d="M486.831,283.1
					c-1.7,8.919-13.779,17.015-25.869,23.159c-1.152,0.581-2.304,1.152-3.445,1.701c-7.603,3.653-14.81,6.473-18.968,8.173
					c-0.647,0.274-1.229,0.505-1.711,0.713c-0.614,0.263-1.097,0.483-1.426,0.658c0-11.333-12.507-16.423-12.507-16.423l5.716-4.454
					l25.858-20.142l7.328-5.705c-2.479-5.277-4.673-10.861-6.582-16.533c-0.241-0.735-0.494-1.47-0.735-2.216
					c-0.856-2.666-1.657-5.343-2.392-8.008c-4.246-15.414-6.473-30.52-6.824-41.03c-0.252-7.471,0.439-12.605,2.008-13.878
					c0.56,0.044,1.097,0.088,1.613,0.143c11.047,1.141,13.834,4.322,16.675,11.278c0,0,0,0,0,0.011
					c0.373,0.9,0.735,1.876,1.13,2.907C470.221,212.844,490.155,265.701,486.831,283.1z"/>
				
					<linearGradient id="SVGID_00000058568229287725432220000016484262955128481197_" gradientUnits="userSpaceOnUse" x1="478.8171" y1="258.9926" x2="363.6043" y2="227.3783">
					<stop  offset="0" style="stop-color:#402C4F"/>
					<stop  offset="1" style="stop-color:#5E4870"/>
				</linearGradient>
				<path style="fill:url(#SVGID_00000058568229287725432220000016484262955128481197_);" d="M486.831,283.1
					c-1.865,9.775-16.182,18.551-29.313,24.859c12.243-7.756,24.135-19.221,25.408-26.626c1.975-11.519-7.043-43.992-12.704-59.044
					c-3.631-9.643-5.189-17.301-4.651-21.744c0.373,0.9,0.735,1.876,1.13,2.907C470.221,212.844,490.155,265.701,486.831,283.1z"/>
				<path style="opacity:0.25;fill:#FFFFFF;" d="M456.727,278.437c-6.846,3.785-23.258,23.609-28.107,18.189l33.186-25.847
					c-2.479-5.277-4.673-10.861-6.582-16.533c-0.351-0.845-0.592-1.58-0.735-2.216c-0.757-3.346,1.152-3.631,3.028,1.273
					c2.238,5.847,4.586,13.955,8.689,17.081C470.32,273.512,463.573,274.664,456.727,278.437z"/>
				<path style="fill:#795C93;" d="M448.894,189.257c-0.033,0.581-0.23,2.929-0.943,5.99c-0.538,2.315-1.371,5.047-2.677,7.745
					c-1.799,3.741-4.487,7.438-8.491,9.917l5.672,12.825c0,0-23.839,37.958-42.851,46.252c3.149-6.352,7.943-14.81,15.216-25.781
					c20.592-31.014,19.55-61.26,19.55-61.26l12.912,4.169C447.841,189.158,448.379,189.202,448.894,189.257z"/>
				<path style="fill:#795C93;" d="M397.168,270.901c-21.437-2.809-29.796-29.84-29.796-29.84l6.653-19.702
					c0,0-4.948-7.69-7.734-14.964c0.011-0.011,0.011-0.011,0-0.011c6.582-6.297,12.781-11.069,12.781-11.069
					s-4.009,26.394,3.813,51.287C386.899,259.359,392.582,266.754,397.168,270.901z"/>
				<path style="opacity:0.25;" d="M421.336,182.861c-0.384,5.343-6.385,14.075-13.165,16.028
					c-6.78,1.964-10.685-5.343-10.685-5.343s-0.099-1.459-0.318-3.653c6.396,4.915,17.213,6.637,24.059-8.316
					C421.259,181.995,421.292,182.423,421.336,182.861z"/>
				
					<linearGradient id="SVGID_00000105384473889236272920000012577980400941908916_" gradientUnits="userSpaceOnUse" x1="447.4301" y1="141.2975" x2="430.909" y2="135.3342">
					<stop  offset="0" style="stop-color:#FFCFDA"/>
					<stop  offset="1" style="stop-color:#F4A2B8"/>
				</linearGradient>
				<path style="fill:url(#SVGID_00000105384473889236272920000012577980400941908916_);" d="M439.377,132.745
					c-2.346,0.293-7.136,9.092-4.008,10.167C438.497,143.987,444.46,131.963,439.377,132.745z"/>
				<path style="opacity:0.25;" d="M428.456,125.814c-4.081,4.048-11.497,8.338-24.717,8.689
					c-21.228,0.57-36.631-3.533-43.125-2.863c-0.45-3.434-0.636-5.727-0.636-5.727c9.226,4.114,61.721,2.863,68.27-3.16
					C428.478,123.445,428.511,124.542,428.456,125.814z"/>
				
					<linearGradient id="SVGID_00000005247016758848003200000011478697740210498465_" gradientUnits="userSpaceOnUse" x1="379.2" y1="132.306" x2="380.0799" y2="164.2728">
					<stop  offset="0" style="stop-color:#402C4F"/>
					<stop  offset="1" style="stop-color:#5E4870"/>
				</linearGradient>
				<path style="fill:url(#SVGID_00000005247016758848003200000011478697740210498465_);" d="M382.072,144.313
					c0,2.065-1.138,3.739-2.542,3.739c-1.404,0-2.542-1.674-2.542-3.739c0-2.065,1.138-3.739,2.542-3.739
					C380.934,140.574,382.072,142.248,382.072,144.313z"/>
				
					<linearGradient id="SVGID_00000073680431460535820260000012234368724069275069_" gradientUnits="userSpaceOnUse" x1="410.9387" y1="130.9729" x2="411.8185" y2="162.9397">
					<stop  offset="0" style="stop-color:#402C4F"/>
					<stop  offset="1" style="stop-color:#5E4870"/>
				</linearGradient>
				<path style="fill:url(#SVGID_00000073680431460535820260000012234368724069275069_);" d="M413.811,142.98
					c0,2.065-1.138,3.739-2.542,3.739c-1.404,0-2.542-1.674-2.542-3.739c0-2.065,1.138-3.739,2.542-3.739
					C412.673,139.241,413.811,140.915,413.811,142.98z"/>
				
					<linearGradient id="SVGID_00000054247205118452931600000009352060004575891635_" gradientUnits="userSpaceOnUse" x1="398.212" y1="151.7252" x2="381.3" y2="152.3117">
					<stop  offset="0" style="stop-color:#FFCFDA"/>
					<stop  offset="1" style="stop-color:#F4A2B8"/>
				</linearGradient>
				<path style="fill:url(#SVGID_00000054247205118452931600000009352060004575891635_);" d="M391.634,148.882
					c-2.78,0.482-5.792,4.49-1.853,5.663c3.938,1.173,7.703-0.091,7.384-2.832C396.846,148.973,391.634,148.882,391.634,148.882z"/>
				
					<linearGradient id="SVGID_00000078032982175914340500000015961043128257642148_" gradientUnits="userSpaceOnUse" x1="389.7947" y1="135.848" x2="381.7326" y2="136.1276" gradientTransform="matrix(0.9805 -0.1963 0.1963 0.9805 -26.1768 78.1308)">
					<stop  offset="0" style="stop-color:#402C4F"/>
					<stop  offset="1" style="stop-color:#5E4870"/>
				</linearGradient>
				
					<path style="fill:none;stroke:url(#SVGID_00000078032982175914340500000015961043128257642148_);stroke-width:1.0971;stroke-miterlimit:10;" d="
					M375.247,136.847c0,0,2.412-3.387,7.311-1.078"/>
				
					<linearGradient id="SVGID_00000036221523321390906900000018320730311319486631_" gradientUnits="userSpaceOnUse" x1="417.4987" y1="141.1128" x2="409.4369" y2="141.3924" gradientTransform="matrix(-0.9922 -0.1244 -0.1244 0.9922 839.2157 46.1439)">
					<stop  offset="0" style="stop-color:#402C4F"/>
					<stop  offset="1" style="stop-color:#5E4870"/>
				</linearGradient>
				
					<path style="fill:none;stroke:url(#SVGID_00000036221523321390906900000018320730311319486631_);stroke-width:1.0971;stroke-miterlimit:10;" d="
					M414.984,135.706c0,0-2.653-3.202-7.37-0.543"/>
				<path style="fill:none;stroke:#F26B95;stroke-width:1.0971;stroke-linecap:round;stroke-miterlimit:10;" d="M393.58,162.138
					c0,0,5.882,3.845,13.447-1.63"/>
				<path style="opacity:0.25;fill:#FFFFFF;" d="M422.159,165.725c-4.246,4.728-10.433,8.612-19.44,9.128
					c-24.618,1.404-28.403-6.747-34.645-16.215c-2.161-3.28-3.796-8.206-5.003-13.253c1.492,1.689,3.379,4.608,5.474,8.667
					C373.91,164.398,388.018,180.437,422.159,165.725z"/>
			</g>
		</g>
		
			<linearGradient id="SVGID_00000181791606408791787180000002603241035205393540_" gradientUnits="userSpaceOnUse" x1="329.0806" y1="219.3114" x2="338.2697" y2="134.459">
			<stop  offset="0" style="stop-color:#FFCFDA"/>
			<stop  offset="1" style="stop-color:#F4A2B8"/>
		</linearGradient>
		<path style="fill:url(#SVGID_00000181791606408791787180000002603241035205393540_);" d="M364.443,188.27
			c-0.11,0.603-0.252,1.316-0.461,2.128c-0.373,1.602-0.911,3.566-1.624,5.749v0.011c-3.851,11.87-12.583,30.213-26.362,30.827
			c-10.422,0.461-18.069-2.37-23.444-6.758c-3.697-2.995-6.319-6.736-8.03-10.641c-2.863-6.538-3.554-15.622-3.708-20.734
			c-0.055-2.381-0.011-3.906-0.011-3.906c34.996,5.079,45.846-18.573,48.589-17.202C353.066,169.576,352.122,178.1,364.443,188.27z"
			/>
		
			<linearGradient id="SVGID_00000101812804576733152660000008058009417540782525_" gradientUnits="userSpaceOnUse" x1="415.7911" y1="403.3675" x2="221.8382" y2="152.3239">
			<stop  offset="0" style="stop-color:#FFCFDA"/>
			<stop  offset="1" style="stop-color:#F4A2B8"/>
		</linearGradient>
		<path style="fill:url(#SVGID_00000101812804576733152660000008058009417540782525_);" d="M408.533,330.603
			c-2.545-1.174-11.585,1.722-18.409,3.719c-4.531,1.328-31.683,5.639-52.494,5.628c-10.51,0-19.407-1.119-22.951-4.257
			c-31.749-28.227-34.371-72.022-23.686-79.581c1.02-0.691,1.975-1.207,2.863-1.547c13.933-5.398,13.417,29.851,35.194,63.728
			c12.715,1.755,54.162,8.305,54.162,8.305s4.301-4.3,12.123-4.103C403.158,322.693,409.214,326.116,408.533,330.603z"/>
		
			<linearGradient id="SVGID_00000129187621026185041030000001135097199506512812_" gradientUnits="userSpaceOnUse" x1="274.1806" y1="320.367" x2="306.4408" y2="302.3795">
			<stop  offset="0" style="stop-color:#FFCFDA"/>
			<stop  offset="1" style="stop-color:#F4A2B8"/>
		</linearGradient>
		<path style="fill:url(#SVGID_00000129187621026185041030000001135097199506512812_);" d="M318.892,333.74
			c6.012,3.039,12.375,5.014,18.738,6.209c-10.51,0-19.407-1.119-22.951-4.257c-31.749-28.227-34.371-72.022-23.686-79.581
			c1.02-0.691,1.975-1.207,2.863-1.547C286.419,271.767,291.554,319.895,318.892,333.74z"/>
		
			<linearGradient id="SVGID_00000168799563272921258580000004841317094337191601_" gradientUnits="userSpaceOnUse" x1="340.0114" y1="221.4416" x2="309.3806" y2="272.6668">
			<stop  offset="0" style="stop-color:#FFCFDA"/>
			<stop  offset="1" style="stop-color:#F4A2B8"/>
		</linearGradient>
		<path style="fill:url(#SVGID_00000168799563272921258580000004841317094337191601_);" d="M331.202,273.128
			c-9.972,0.099-23.751-35.095-23.751-35.095s0.362-1.481,0.779-3.938c2.995,10.576,13.878,28.655,20.307,32.714
			c4.542,2.863,4.355-6.451,3.533-14.119C334.822,260.775,337.883,273.062,331.202,273.128z"/>
		
			<linearGradient id="SVGID_00000181061087955242935950000017893075227700448389_" gradientUnits="userSpaceOnUse" x1="428.7191" y1="338.4708" x2="156.952" y2="487.8452">
			<stop  offset="0" style="stop-color:#FFD6E8"/>
			<stop  offset="1" style="stop-color:#BF5270"/>
		</linearGradient>
		<path style="fill:url(#SVGID_00000181061087955242935950000017893075227700448389_);" d="M277.38,500h-22.227
			c0,0,12.901-36.642,27.196-62.84c14.295-26.198,23.247-62.949,20.12-86.679c-0.735-5.551-2.282-11.903-4.213-18.65
			C318.98,364.03,288.065,436.458,277.38,500z"/>
		
			<linearGradient id="SVGID_00000067212791983635004500000004593974754675166894_" gradientUnits="userSpaceOnUse" x1="230.3304" y1="308.0092" x2="549.9335" y2="280.3763">
			<stop  offset="0" style="stop-color:#FFD6E8"/>
			<stop  offset="1" style="stop-color:#BF5270"/>
		</linearGradient>
		<path style="fill:url(#SVGID_00000067212791983635004500000004593974754675166894_);" d="M362.117,286.929
			c-0.735,2.37-1.865,4.575-2.754,7.504c-0.998,3.258-1.24,6.922-0.395,12.068c-3.719,0.735-8.02-0.241-12.013-2.677
			C354.152,300.664,359.626,294.718,362.117,286.929z"/>
		
			<linearGradient id="SVGID_00000059283259674392073780000002784678813408110736_" gradientUnits="userSpaceOnUse" x1="294.66" y1="198.1203" x2="303.002" y2="198.4461">
			<stop  offset="0" style="stop-color:#FFCFDA"/>
			<stop  offset="1" style="stop-color:#F4A2B8"/>
		</linearGradient>
		<path style="fill:url(#SVGID_00000059283259674392073780000002784678813408110736_);" d="M297.397,194.543
			c-1.808,0.06-0.733,7.967,1.026,7.381C300.183,201.337,301.845,194.396,297.397,194.543z"/>
		<path style="opacity:0.25;" d="M364.443,188.27c-0.11,0.603-0.252,1.316-0.461,2.128c-8.502-0.483-13.626-14.317-19.681-10.795
			c-6.374,3.708-22.841,11.124-43.488,9.248c-0.055-2.381-0.011-3.906-0.011-3.906c34.996,5.079,45.846-18.573,48.589-17.202
			C353.066,169.576,352.122,178.1,364.443,188.27z"/>
		<path style="opacity:0.25;fill:#FFFFFF;" d="M362.358,196.158c-3.851,11.87-12.583,30.213-26.362,30.827
			c-10.422,0.461-18.069-2.37-23.444-6.758c12.748,6.769,20.921,7.252,31.168,0.11C355.128,212.383,362.358,196.158,362.358,196.158
			z"/>
		
			<linearGradient id="SVGID_00000005949507060521685590000017976223858326725560_" gradientUnits="userSpaceOnUse" x1="363.1583" y1="207.7847" x2="346.2467" y2="208.3712" gradientTransform="matrix(-0.9492 -0.3148 -0.3148 0.9492 741.4724 120.1148)">
			<stop  offset="0" style="stop-color:#FFCFDA"/>
			<stop  offset="1" style="stop-color:#F4A2B8"/>
		</linearGradient>
		<path style="fill:url(#SVGID_00000005949507060521685590000017976223858326725560_);" d="M338.491,202.394
			c2.487,1.332,4.084,6.085-0.023,5.958c-4.107-0.126-7.283-2.511-6.118-5.012C333.515,200.839,338.491,202.394,338.491,202.394z"/>
		
			<linearGradient id="SVGID_00000155132914913008108430000002777506589676030081_" gradientUnits="userSpaceOnUse" x1="328.2734" y1="198.1232" x2="317.613" y2="198.4929">
			<stop  offset="0" style="stop-color:#402C4F"/>
			<stop  offset="1" style="stop-color:#5E4870"/>
		</linearGradient>
		<path style="fill:url(#SVGID_00000155132914913008108430000002777506589676030081_);" d="M327.621,198.248
			c0,2.047-1.313,3.707-2.933,3.707c-1.62,0-2.933-1.66-2.933-3.707c0-2.047,1.313-3.707,2.933-3.707
			C326.308,194.54,327.621,196.2,327.621,198.248z"/>
		
			<linearGradient id="SVGID_00000022518187093161410600000008782699564824818589_" gradientUnits="userSpaceOnUse" x1="351.1582" y1="199.7405" x2="340.4979" y2="200.1102">
			<stop  offset="0" style="stop-color:#402C4F"/>
			<stop  offset="1" style="stop-color:#5E4870"/>
		</linearGradient>
		<path style="fill:url(#SVGID_00000022518187093161410600000008782699564824818589_);" d="M350.506,199.865
			c0,2.047-1.313,3.707-2.933,3.707s-2.933-1.66-2.933-3.707c0-2.047,1.313-3.707,2.933-3.707S350.506,197.818,350.506,199.865z"/>
		
			<linearGradient id="SVGID_00000088097263739722215370000005188353040850040472_" gradientUnits="userSpaceOnUse" x1="319.838" y1="190.1875" x2="328.9797" y2="190.1875">
			<stop  offset="0" style="stop-color:#402C4F"/>
			<stop  offset="1" style="stop-color:#5E4870"/>
		</linearGradient>
		
			<path style="fill:none;stroke:url(#SVGID_00000088097263739722215370000005188353040850040472_);stroke-width:1.0971;stroke-miterlimit:10;" d="
			M320.159,190.911c0,0,4.204-3.031,8.505,0"/>
		
			<linearGradient id="SVGID_00000153669642650171786260000000141489644674756018_" gradientUnits="userSpaceOnUse" x1="352.9798" y1="191.5344" x2="362.1214" y2="191.5344" gradientTransform="matrix(-1 0 0 1 705.1261 0)">
			<stop  offset="0" style="stop-color:#402C4F"/>
			<stop  offset="1" style="stop-color:#5E4870"/>
		</linearGradient>
		
			<path style="fill:none;stroke:url(#SVGID_00000153669642650171786260000000141489644674756018_);stroke-width:1.0971;stroke-miterlimit:10;" d="
			M351.826,192.258c0,0-4.203-3.031-8.505,0"/>
		<path style="fill:none;stroke:#F26B95;stroke-width:1.0971;stroke-linecap:round;stroke-miterlimit:10;" d="M326.161,214.084
			c1.917,3.222,6.243,5.079,10.385,1.365"/>
	</g>
</g>
</svg>
